<svg width="41" height="40" viewBox="0 0 41 40" fill="none" xmlns="http://www.w3.org/2000/svg">
<path d="M5.375 6.875C5.375 4.46 7.335 2.5 9.75 2.5H21C23.415 2.5 25.375 4.46 25.375 6.875V8.2325L32.8125 15.67C33.625 16.4826 34.2695 17.4472 34.7092 18.5089C35.1488 19.5705 35.3751 20.7084 35.375 21.8575V36.25C35.375 36.5815 35.2433 36.8995 35.0089 37.1339C34.7745 37.3683 34.4565 37.5 34.125 37.5C33.7935 37.5 33.4755 37.3683 33.2411 37.1339C33.0067 36.8995 32.875 36.5815 32.875 36.25V21.8575C32.8752 21.0367 32.7136 20.2239 32.3996 19.4655C32.0856 18.7071 31.6253 18.018 31.045 17.4375L25.375 11.7675V18.23L27.51 20.365C27.7447 20.5994 27.8767 20.9174 27.8769 21.2491C27.8772 21.5808 27.7456 21.899 27.5112 22.1338C27.2769 22.3685 26.9588 22.5005 26.6271 22.5007C26.2954 22.5009 25.9772 22.3694 25.7425 22.135L20.67 17.06L19.68 16.195C19.2889 15.9946 18.8391 15.9405 18.4116 16.0422C17.9841 16.144 17.607 16.3949 17.348 16.75C17.0891 17.1051 16.9654 17.5409 16.9993 17.979C17.0331 18.4172 17.2222 18.8289 17.5325 19.14L21.26 22.865C21.3765 22.9811 21.4689 23.119 21.5319 23.2709C21.595 23.4228 21.6275 23.5856 21.6275 23.75V26.25C21.6275 26.913 21.8909 27.5489 22.3597 28.0178C22.8286 28.4866 23.4645 28.75 24.1275 28.75C24.4586 28.7507 24.7759 28.8827 25.0098 29.117C25.2436 29.3513 25.375 29.6689 25.375 30V33.125C25.375 34.2853 24.9141 35.3981 24.0936 36.2186C23.2731 37.0391 22.1603 37.5 21 37.5H9.75C8.58968 37.5 7.47688 37.0391 6.65641 36.2186C5.83594 35.3981 5.375 34.2853 5.375 33.125V6.875ZM22.875 31.875V31.0925C22.1483 30.9043 21.4732 30.5548 20.9 30.07C20.0475 30.238 19.2798 30.6968 18.7281 31.368C18.1764 32.0392 17.8748 32.8811 17.875 33.75V35H19.75C19.9667 35 20.175 34.9792 20.375 34.9375V33.75C20.375 33.4185 20.5067 33.1005 20.7411 32.8661C20.9755 32.6317 21.2935 32.5 21.625 32.5H22.8125C22.8525 32.3 22.8733 32.0917 22.875 31.875ZM18.6425 23.785L15.7675 20.9075C14.9923 20.1326 14.5382 19.0936 14.496 17.9983C14.4538 16.9031 14.8267 15.8322 15.54 15H15.375C14.5683 15.0001 13.7735 15.1953 13.0586 15.5692C12.3437 15.943 11.7299 16.4842 11.2695 17.1467C10.8091 17.8092 10.5159 18.5732 10.4148 19.3736C10.3138 20.174 10.4078 20.9869 10.6891 21.743C10.9703 22.4992 11.4303 23.176 12.0299 23.7158C12.6294 24.2556 13.3507 24.6423 14.1321 24.8429C14.9134 25.0435 15.7318 25.0521 16.5172 24.8679C17.3026 24.6837 18.0318 24.3121 18.6425 23.785ZM12.875 6.25V5H11C10.7833 5 10.575 5.02083 10.375 5.0625V6.25C10.375 6.58152 10.2433 6.89946 10.0089 7.13388C9.77446 7.3683 9.45652 7.5 9.125 7.5H7.9375C7.89583 7.7 7.875 7.90833 7.875 8.125V10H9.125C10.1196 10 11.0734 9.60491 11.7767 8.90165C12.4799 8.19839 12.875 7.24456 12.875 6.25ZM9.125 30H7.875V31.875C7.875 32.0917 7.89583 32.3 7.9375 32.5H9.125C9.45652 32.5 9.77446 32.6317 10.0089 32.8661C10.2433 33.1005 10.375 33.4185 10.375 33.75V34.9375C10.575 34.9775 10.7833 34.9983 11 35H12.875V33.75C12.875 32.7554 12.4799 31.8016 11.7767 31.0983C11.0734 30.3951 10.1196 30 9.125 30ZM20.375 6.25V5.0625C20.1692 5.02154 19.9599 5.00061 19.75 5H17.875V6.25C17.875 7.24456 18.2701 8.19839 18.9733 8.90165C19.6766 9.60491 20.6304 10 21.625 10H22.875V8.125C22.875 7.90833 22.8542 7.7 22.8125 7.5H21.625C21.2935 7.5 20.9755 7.3683 20.7411 7.13388C20.5067 6.89946 20.375 6.58152 20.375 6.25Z" fill="#4A4A49"/>
</svg>
