<svg width="200" height="41" viewBox="0 0 200 41" fill="none" xmlns="http://www.w3.org/2000/svg">
<path d="M97.8304 17.7829C97.896 18.5987 97.9617 19.4145 98.0227 20.2307C98.1705 22.5986 97.4932 24.6981 96.0114 26.5428C93.0787 30.1979 87.289 29.7712 85.178 25.6962C83.6859 22.8154 84.0813 19.9967 85.8003 17.3224C86.457 16.3037 87.4162 15.7427 88.6264 15.5947C89.1353 15.5327 89.651 15.4605 90.1392 15.3125C91.4663 14.9064 91.7998 13.805 90.954 12.7209C90.2526 11.8191 89.3966 11.5713 88.2964 12.1427C87.2374 12.6899 86.1888 13.306 85.2571 14.0459C81.1349 17.3259 79.4743 24.3677 84.1948 29.0415C88.0351 32.8481 94.4883 32.6347 98.5315 28.5528C101.698 25.3554 102.276 21.4181 101.798 17.202C101.668 16.0573 101.472 14.9204 101.277 13.7835C101.104 12.7805 100.931 11.7776 100.804 10.7694C100.505 8.37397 100.742 6.07833 102.499 4.19227C103.998 2.58154 106.102 2.11347 107.677 3.05994C109.09 3.90661 109.296 5.29362 108.175 6.49478C107.983 6.70166 107.773 6.89329 107.563 7.08474C107.413 7.22133 107.263 7.35791 107.12 7.49977C106.762 7.85082 106.707 8.22253 107.065 8.62521C107.759 9.41336 109.079 9.54759 109.843 8.83515C111.063 7.6925 111.651 6.26419 111.407 4.59151C110.984 1.67981 107.88 -0.42308 104.744 0.0725292C101.509 0.581904 99.5767 2.70201 98.3321 5.53454C97.3798 7.70283 97.3247 10.0432 97.4451 12.3629C97.5398 14.1717 97.6851 15.9772 97.8304 17.7829Z" fill="#10100F"/>
<path d="M14.6908 28.6216C19.6072 28.7283 23.2516 26.3811 26.2771 22.7535C29.251 19.1879 31.2279 15.1576 32.0324 10.5767C32.3487 8.78353 32.0977 7.02481 31.3791 5.37278C30.6572 3.71043 29.1169 3.12878 27.4907 2.94293C23.2963 2.46453 19.5488 3.43853 16.5645 6.62557C15.3784 7.89212 14.6976 9.34453 14.7836 11.1136C14.8008 11.4818 14.8042 11.8639 14.7423 12.2253C14.5189 13.5193 13.3877 14.1148 12.1638 13.6088C11.459 13.3163 11.2905 12.7381 11.3593 12.0669C11.6206 9.49252 12.4938 7.16248 14.3057 5.27641C17.6303 1.8106 21.5944 -0.189042 26.5212 0.158572C31.0732 0.478653 34.7828 4.17162 35.2263 8.74567C35.5805 12.3939 34.4906 15.7117 32.9056 18.885C30.1277 24.4399 26.0433 28.6319 20.0335 30.6522C16.3204 31.8981 12.5317 32.0599 8.70851 31.1926C7.22329 30.8553 5.76897 30.931 4.30435 31.2993C3.50673 31.4989 2.68503 31.6297 1.86677 31.7329C1.12071 31.8259 0.481216 31.5574 0.188989 30.8278C-0.117004 30.0637 -0.0963766 29.2652 0.587796 28.7111C1.13102 28.2671 1.73956 27.7887 2.39622 27.6166C5.68302 26.7596 7.79055 24.5053 9.70556 21.8793C12.873 17.5341 16.1142 13.2442 19.3553 8.9543C19.8187 8.34102 20.2821 7.72774 20.7452 7.11429C21.4156 6.22633 22.1514 5.3659 22.9834 4.63625C23.5644 4.13032 24.3277 3.77238 25.0669 3.52458C25.8198 3.27333 26.724 3.89284 27.0334 4.68444C27.3257 5.42785 27.0541 6.03359 26.4146 6.364C23.2481 7.99193 21.1646 10.7109 19.119 13.4815C16.2998 17.2984 13.4771 21.1152 10.6545 24.9321C10.5341 25.0939 10.4172 25.2556 10.3141 25.4243C9.44082 26.825 9.9806 28.0468 11.6275 28.3015C12.3292 28.4087 13.0376 28.4714 13.7458 28.534C14.061 28.5619 14.3762 28.5898 14.6908 28.6216Z" fill="#10100F"/>
<path fill-rule="evenodd" clip-rule="evenodd" d="M199.477 27.2071C199.642 27.1314 199.948 27.1279 199.989 27.3929C200.257 29.1585 195.592 31.7467 192.597 31.4886C191.586 31.2373 190.644 30.8243 190.362 29.2515C190.445 29.0346 190.239 28.7455 189.964 28.7696C189.823 28.7558 189.678 28.8144 189.603 28.9245C189.386 29.0415 189.18 29.1723 188.997 29.3272C188.446 29.6534 187.961 30.0775 187.488 30.4907C186.605 31.2631 185.764 31.9976 184.617 31.9842C183.466 31.9704 182.166 31.1651 182.465 29.8951C182.624 29.2214 183.345 28.6929 184.031 28.1893C184.699 27.6997 185.335 27.2336 185.391 26.6805C185.477 25.8407 183.129 27.4755 182.644 27.8163C182.548 27.8824 182.454 27.9487 182.359 28.0147C181.87 28.3571 181.392 28.6922 180.853 28.9692C179.749 29.5382 178.859 29.2308 177.937 28.9128C177.237 28.671 176.518 28.423 175.675 28.5493C174.64 28.706 173.706 29.3188 172.763 29.9369C171.51 30.7585 170.242 31.5896 168.706 31.3716C167.9 31.2579 167.513 30.9146 167.033 30.49C166.889 30.362 166.736 30.2266 166.561 30.0878C166.286 29.8704 166.505 29.8043 166.532 29.7975C166.518 29.8003 166.451 29.8126 166.268 29.8262C166.114 29.8374 165.886 29.9824 165.684 30.1109C165.575 30.18 165.473 30.2444 165.395 30.2805C163.937 30.9517 162.301 31.3509 160.706 31.4989C158.21 31.7295 156.583 29.9398 156.442 27.3138C156.432 27.1795 156.281 27.1073 156.178 27.1933C154.108 28.8901 150.378 31.1995 147.954 31.5471C146.888 31.702 145.63 31.7398 144.66 31.1788C144.415 31.0374 144.24 30.7351 144.072 30.4455C143.917 30.1781 143.769 29.9215 143.577 29.8125C143.5 29.7954 143.35 29.8802 143.212 29.9578C143.127 30.0053 143.048 30.0501 142.993 30.0671C141.298 30.5731 132.108 33.0683 133.59 29.0105C131.214 30.2633 128.773 31.4438 126.029 31.1134C125.302 31.0261 124.863 30.7348 124.471 30.4742C123.75 29.9954 123.184 29.6203 121.274 30.8037C120.061 31.554 117.661 31.5815 116.32 31.0343C115.81 30.8253 115.342 30.4405 114.873 30.0556C114.277 29.5657 113.681 29.0758 112.999 28.9486C111.256 28.6216 109.798 29.0828 108.196 29.9467C106.295 30.9689 104.29 31.9911 102.121 31.0377C96.7025 28.656 106.188 20.334 108.024 24.2541C107.962 23.9581 107.931 23.6346 107.979 23.2629C108.107 22.2579 108.897 22.0686 109.819 22.1064C111.296 22.1687 111.422 23.1434 111.603 24.5452C111.612 24.6146 111.621 24.6851 111.631 24.7566C111.82 26.1849 112.796 28.1776 114.625 26.825C114.914 26.6109 115.237 26.4037 115.562 26.1947C116.036 25.8896 116.516 25.5809 116.908 25.2418C118.342 23.9971 119.577 22.5577 120.81 21.1192C121.999 19.7338 123.186 18.349 124.551 17.14C124.672 17.033 124.795 16.9218 124.921 16.8086C126.125 15.7242 127.538 14.4516 129.244 14.81C130.595 15.0956 131.042 15.901 130.595 17.14C129.051 21.4376 124.709 23.6088 120.912 25.5076C120.725 25.6009 120.54 25.6935 120.356 25.7856L120.305 25.8114L120.243 25.8419C119.41 26.2564 117.937 26.9892 117.957 28.0675C117.987 29.6316 120.198 29.1613 120.95 29.0015L120.972 28.9968C121.237 28.9399 121.511 28.8971 121.784 28.8541C122.902 28.6788 124.025 28.5025 124.657 27.3688C125.425 25.9936 126.934 25.0957 128.419 24.2121C129.242 23.7225 130.058 23.2373 130.736 22.6778C132.895 20.895 133.363 23.5623 131.52 25.1558C131.42 25.2421 131.317 25.3325 131.21 25.4253L131.21 25.4258C130.592 25.9658 129.881 26.5879 129.227 26.9696C128.481 27.4067 127.308 28.5046 128.907 28.336C130.201 28.1983 131.697 27.4221 133.02 26.7358L133.02 26.7357L133.02 26.7354C133.45 26.5122 133.862 26.2985 134.243 26.1195C134.718 25.8965 136.248 24.782 137.275 24.0339L137.278 24.0315C137.661 23.7529 137.973 23.5254 138.135 23.4143C139.159 22.9738 139.929 23.6174 139.946 24.8013C139.957 25.3485 139.747 25.7443 139.42 26.1677C139.321 26.2969 139.196 26.4012 139.071 26.505C138.947 26.6085 138.824 26.7117 138.726 26.8388C138.011 27.2621 136.873 28.1191 136.907 28.9107C137.54 29.5681 140.373 28.9176 141.036 28.7145C141.225 28.6251 141.421 28.5253 141.635 28.4151C141.668 28.3997 141.697 28.3785 141.726 28.3572C141.742 28.3453 141.758 28.3332 141.776 28.3222C142.619 28.0523 143.26 27.3446 143.856 26.6858C143.967 26.5631 144.077 26.4421 144.186 26.326C144.268 26.2372 144.351 26.1484 144.434 26.0597C144.979 25.4736 145.524 24.8882 146.097 24.3263C146.215 24.2171 146.332 24.1075 146.448 23.9981C146.941 23.5353 147.429 23.076 147.974 22.664C148.115 22.5571 148.265 22.4642 148.414 22.3713C148.588 22.2639 148.761 22.1565 148.92 22.0273C148.935 22.0156 148.951 22.0033 148.968 21.9903C149.096 21.892 149.272 21.7568 149.312 21.6108C149.398 21.3009 149.175 21.3284 148.952 21.356C148.907 21.3615 148.862 21.3671 148.82 21.3699C148.452 21.394 148.084 21.4215 147.717 21.4491C147.517 21.4663 147.314 21.48 147.122 21.4319C146.087 21.1806 146.95 19.5424 147.541 19.2257C147.871 19.0503 148.24 19.0306 148.606 19.0112C148.778 19.0021 148.95 18.9929 149.116 18.9676C149.164 18.9616 149.207 18.9529 149.251 18.9439L149.271 18.9401L149.36 18.8334C149.57 18.8162 149.762 18.7989 149.944 18.7817C150.646 18.5752 151.285 18.2414 151.897 17.763C152.719 17.121 153.43 16.3389 154.137 15.5601L154.137 15.5599C154.534 15.1238 154.929 14.6888 155.342 14.28C155.402 14.2203 155.466 14.1568 155.532 14.0903L155.533 14.0896C156.568 13.0538 158.355 11.2645 159.819 11.3098C162.432 11.3898 157.532 16.0239 156.612 16.8942C156.543 16.9594 156.496 17.0036 156.477 17.023C156.247 17.2519 155.997 17.4548 155.78 17.6305C155.423 17.9197 155.158 18.1353 155.222 18.2724C155.258 18.2706 155.293 18.2681 155.328 18.2655C155.364 18.2629 155.399 18.2603 155.435 18.2586C159.44 17.9851 159.702 18.4585 160.564 20.0192L160.582 20.0517C160.712 20.2892 160.575 20.4475 160.379 20.5026C158.302 21.0826 157.926 21.061 156.956 21.0052C156.47 20.9773 155.835 20.9408 154.761 20.9672C154.404 20.9741 154.08 20.981 153.788 20.9879C151.832 21.5936 150.233 23.3145 148.951 24.8392C148.895 24.9049 148.838 24.9729 148.778 25.0431L148.778 25.0435C148.099 25.8408 147.188 26.9125 147.115 27.9436C146.988 29.7884 149.422 29.2136 150.47 28.7283C152.014 28.015 153.321 26.8551 154.608 25.7135C155.122 25.2579 155.633 24.8051 156.154 24.3849C157.092 23.6277 161.751 20.6747 161.359 23.7344C161.278 24.3627 160.814 24.9734 160.391 25.5311C160.223 25.7523 160.061 25.9653 159.932 26.1677C159.884 26.2434 159.837 26.3168 159.791 26.3879C159.086 27.4803 158.719 28.0487 160.95 28.7111C161.93 29.0037 163.288 28.6595 164.223 28.2121C165.403 27.6493 166.305 26.75 167.208 25.8492C167.918 25.1413 168.629 24.4326 169.476 23.8858C170.525 23.2112 171.659 22.843 172.818 23.4831C172.9 23.5278 172.973 23.5726 173.045 23.6173C173.722 21.8999 176.662 21.6315 177.607 23.3592C177.88 23.8574 177.693 24.7005 177.536 25.4101C177.471 25.7005 177.411 25.9686 177.391 26.1814C177.208 28.0331 180.808 26.2124 181.987 25.2866C183.266 24.2816 184.851 23.2112 186.429 22.7741C187.54 22.4678 188.867 22.5848 189.341 23.8583C189.664 24.7221 189.321 25.6652 188.826 26.4878C190.651 25.3038 193.474 23.755 194.079 25.7134C194.241 26.2355 194.123 26.7804 194.02 27.2578C193.833 28.1303 193.693 28.777 195.396 28.6457C196.398 28.5676 197.582 28.0474 198.584 27.6076C198.774 27.5239 198.958 27.4431 199.133 27.3688C199.19 27.3413 199.247 27.3146 199.305 27.288C199.362 27.2613 199.42 27.2346 199.477 27.2071ZM123.117 21.5007C123.1 21.5213 123.076 21.5351 123.052 21.5489C122.934 21.669 122.816 21.7884 122.697 21.9078L122.697 21.9083C122.297 22.3119 121.897 22.7149 121.529 23.1424C122.515 22.6835 123.488 21.9306 124.315 21.2903C124.431 21.2007 124.544 21.1133 124.654 21.0292C124.699 20.9945 124.766 20.9466 124.847 20.8886L124.847 20.8883C125.321 20.5491 126.275 19.8647 126.208 19.4563C126.064 18.5787 123.543 21.0326 123.31 21.2873C123.268 21.3361 123.225 21.3833 123.181 21.4311L123.18 21.4313C123.159 21.4543 123.138 21.4773 123.117 21.5007ZM105.194 28.9107C105.69 29.1654 107.12 28.2327 107.446 27.9436C108.843 26.7039 108.548 25.8643 108.236 24.9735L108.213 24.908C108.269 25.5735 107.731 25.817 107.09 26.1077C107.015 26.1417 106.939 26.1764 106.862 26.2124C106.562 26.3521 106.203 26.4031 105.846 26.4538C105.544 26.4967 105.243 26.5394 104.981 26.6357C104.462 26.825 103.417 27.9918 105.194 28.9107ZM169.796 27.5753C169.923 29.0725 172.801 27.3585 173.055 27.035C173.602 26.3398 173.413 25.9027 173.189 25.4174C172.842 25.692 172.245 25.9765 171.648 26.2612C170.705 26.7114 169.76 27.1621 169.796 27.5753Z" fill="#10100F"/>
<path d="M21.6193 26.2764L21.6209 26.2791C21.6221 26.2809 21.6235 26.2828 21.6253 26.2847C21.6288 26.2847 21.6322 26.2812 21.6322 26.2778C21.6288 26.2744 21.6245 26.2726 21.6202 26.2709C21.6175 26.2698 21.6148 26.2687 21.6123 26.2672C21.6111 26.2662 21.6097 26.2651 21.6082 26.264C21.6094 26.2653 21.6108 26.2663 21.6123 26.2672C21.6156 26.2703 21.6175 26.2734 21.6193 26.2764Z" fill="#10100F"/>
<path d="M163.676 20.9844C164.618 20.9844 165.385 20.2582 165.385 19.3634C165.385 18.4685 164.622 17.7423 163.676 17.7423C162.731 17.7423 161.967 18.4685 161.967 19.3634C161.967 20.2582 162.734 20.9844 163.676 20.9844Z" fill="#10100F"/>
<path fill-rule="evenodd" clip-rule="evenodd" d="M77.9959 27.5478C78.0234 27.5685 78.0372 27.6029 78.0372 27.6407C78.0578 27.6992 78.0406 27.7577 77.9994 27.8059C76.576 31.8327 64.7937 33.058 63.8036 28.4805C63.6052 28.6418 63.3977 28.8166 63.1825 28.9977C61.8048 30.1575 60.1136 31.5812 58.5227 31.4473C56.4358 31.2717 57.591 29.0381 58.337 27.7784C57.821 28.0927 57.3081 28.44 56.7918 28.7897C55.1991 29.8682 53.5734 30.9691 51.7222 31.1926C50.5464 31.3337 48.5592 31.5574 47.8991 30.1876C47.2182 28.7738 48.9988 26.9353 50.1764 25.7194C50.6816 25.1978 51.0758 24.7908 51.1171 24.581C51.0566 24.5787 50.9277 24.5426 50.7571 24.4947C50.1716 24.3306 49.0953 24.0289 48.6107 24.4847C48.3514 24.7294 47.8157 25.5663 47.267 26.4235C46.6739 27.3502 46.0654 28.3007 45.7743 28.5528C44.1275 29.9845 41.9271 31.3888 39.6339 31.1995C38.8931 31.1385 38.301 30.8707 37.7196 30.6076C36.8898 30.2323 36.0815 29.8666 34.8929 30.1257C34.4443 30.2228 34.0133 30.3921 33.5799 30.5625C33.0767 30.7602 32.5702 30.9593 32.0289 31.048C30.389 31.313 29.0413 30.9895 28.3846 29.482V29.3616C28.3674 29.3719 28.3502 29.3788 28.333 29.3857C28.3021 29.0484 28.2574 28.7145 28.1955 28.3876V28.3084C28.1955 28.2692 28.1918 28.2299 28.1881 28.1907L28.1866 28.1749L28.1846 28.1523L28.1834 28.1382L28.1826 28.1271C28.1823 28.1222 28.182 28.1172 28.1817 28.1122C28.2711 27.7612 28.333 27.4101 28.3743 27.0591C28.38 27.0392 28.3858 27.0195 28.3917 26.9997C28.3998 26.9725 28.408 26.9453 28.4162 26.9181C28.441 26.8357 28.4658 26.7536 28.4877 26.6702C28.6562 26.4878 28.8144 26.2916 28.9794 26.0782C30.028 24.7428 31.3104 23.7826 32.7613 22.929C34.3703 21.986 36.6738 21.6039 38.41 22.485C39.0151 22.7741 39.5583 23.2319 39.9984 23.8961C40.4453 24.5742 41.0229 25.6136 40.8545 26.4396C40.8211 26.6047 40.3102 27.0338 39.8496 27.4208C39.4556 27.7517 39.0984 28.0517 39.1079 28.1295C39.2179 29.0277 42.0028 28.2912 42.5322 28.0365C43.3719 27.6308 43.7749 26.7614 44.1593 25.9319C44.2739 25.6847 44.3868 25.4411 44.5091 25.2143C44.575 25.0927 44.6413 24.9684 44.7085 24.8426C45.2265 23.8719 45.7953 22.806 46.6201 22.0961C48.322 20.6334 50.4536 21.4594 52.1519 22.4954C53.706 23.1149 54.8852 24.168 53.7197 25.025C52.8877 25.6376 49.8553 28.4014 52.3789 28.1708C53.9123 28.0296 55.6416 27.1073 56.9274 26.3604C60.5202 24.2747 63.4391 21.1462 66.1621 18.0452C66.2214 17.9776 66.2971 17.8903 66.3874 17.7863L66.388 17.7857L66.3934 17.7794C67.698 16.2766 71.9859 11.337 73.5264 11.4302C75.3555 11.5403 74.1865 13.8394 73.5952 14.6379C72.6181 15.9588 70.6621 17.8854 68.639 19.878C66.2343 22.2465 63.7348 24.7084 62.6725 26.357C63.8156 25.7583 65.0601 24.9293 66.314 24.094C67.9074 23.0326 69.516 21.961 70.9513 21.3389C72.3781 20.7194 75.077 21.7416 73.4749 23.7585C72.8698 24.5191 72.0549 24.7049 71.2057 24.8701C70.3875 25.0285 68.2628 25.5619 67.8502 26.3638C67.4514 27.1348 68.4381 28.1157 69.3045 28.4014C70.0218 28.6385 70.9818 28.5515 71.7355 28.4833L71.804 28.4771C73.0004 28.3704 74.0353 28.0778 75.1011 27.5581C75.2375 27.4921 75.3769 27.4139 75.5192 27.3341C75.9109 27.1142 76.3244 26.8822 76.7582 26.8595C77.4286 26.825 77.7071 26.9902 77.9959 27.5478ZM34.1846 27.744C35.0923 27.3619 36.5638 26.7046 36.9626 25.703C37.1826 24.6086 35.6252 25.0319 35.0063 25.235C34.0127 25.5654 32.689 26.1677 32.1493 27.1279C31.2794 28.6698 33.4832 28.04 34.1846 27.744Z" fill="#10100F"/>
<path d="M44.2307 39.9827C44.6742 40.3923 45.2518 40.6091 45.9016 40.6091C46.823 40.6091 47.3937 40.1376 47.3937 39.3804C47.3937 38.6715 46.8711 38.4133 46.0288 38.224C45.4409 38.0898 45.3033 38.0141 45.3033 37.8145C45.3033 37.6252 45.4959 37.4909 45.7709 37.4909C46.101 37.4909 46.4551 37.6286 46.768 37.8799L46.8264 37.928L47.318 37.25L47.2699 37.2087C46.8574 36.8577 46.376 36.6856 45.7915 36.6856C44.9527 36.6856 44.3682 37.1846 44.3682 37.8971C44.3682 38.6887 45.018 38.902 45.7434 39.0672C46.3244 39.2015 46.4585 39.2738 46.4585 39.4665C46.4585 39.673 46.2557 39.8038 45.9325 39.8038C45.5165 39.8038 45.1383 39.6523 44.7773 39.3426L44.7223 39.2944L44.1825 39.938L44.2307 39.9827Z" fill="#10100F"/>
<path fill-rule="evenodd" clip-rule="evenodd" d="M48.8549 40.5472H49.7797V39.3632H50.5704C51.4093 39.3632 52.0179 38.8126 52.0179 38.0554C52.0179 37.2982 51.4093 36.7475 50.5704 36.7475H48.8549V40.5472ZM50.4845 38.4959H49.7797V37.608H50.4845C50.8386 37.608 51.069 37.78 51.069 38.0519C51.069 38.3204 50.8386 38.4959 50.4845 38.4959Z" fill="#10100F"/>
<path d="M53.4756 40.5472H56.4324V39.6971H54.4073V39.0363H56.2433V38.1862H54.4073V37.5976H56.4324V36.7475H53.4756V40.5472Z" fill="#10100F"/>
<path d="M57.897 38.6439C57.897 39.7074 58.8184 40.6091 59.9083 40.6091C60.4583 40.6091 60.9912 40.3785 61.3763 39.9724L61.4279 39.9208L60.7506 39.3116L60.7024 39.3667C60.4893 39.611 60.197 39.7521 59.9048 39.7521C59.3272 39.7521 58.8424 39.2428 58.8424 38.6405C58.8424 38.0416 59.3272 37.5357 59.9048 37.5357C60.2005 37.5357 60.4893 37.6768 60.7024 37.9212L60.7506 37.9762L61.4279 37.367L61.3797 37.3154C60.9981 36.9127 60.4618 36.6821 59.9083 36.6821C58.8184 36.6821 57.897 37.5804 57.897 38.6439Z" fill="#10100F"/>
<path d="M62.8581 40.5472H63.7864V36.7475H62.8581V40.5472Z" fill="#10100F"/>
<path fill-rule="evenodd" clip-rule="evenodd" d="M68.2456 40.5472H69.2804L67.7333 36.7475H66.7603L65.2132 40.5472H66.2446L66.4784 39.9724H68.0118L68.2456 40.5472ZM66.8085 39.1636L67.2451 38.0864L67.6817 39.1636H66.8085Z" fill="#10100F"/>
<path d="M70.7072 40.5472H73.4542V39.6971H71.6355V36.7475H70.7072V40.5472Z" fill="#10100F"/>
<path d="M76.0534 40.5472H76.9817V37.5976H78.1197V36.7475H74.9154V37.5976H76.0534V40.5472Z" fill="#10100F"/>
<path d="M81.9463 40.5472V39.1739L83.4281 36.7441H82.3829L81.4787 38.2757L80.6089 36.7441H79.5259L81.0111 39.1739V40.5472H81.9463Z" fill="#10100F"/>
<path d="M87.3784 38.6439C87.3784 39.7074 88.2998 40.6091 89.3897 40.6091C89.9398 40.6091 90.4761 40.3785 90.8577 39.9724L90.9093 39.9208L90.232 39.3116L90.1839 39.3667C89.9707 39.611 89.6819 39.7521 89.3862 39.7521C88.8086 39.7521 88.3239 39.2428 88.3239 38.6405C88.3239 38.0416 88.8121 37.5357 89.3862 37.5357C89.6819 37.5357 89.9707 37.6768 90.1839 37.9212L90.232 37.9762L90.9093 37.367L90.8612 37.3154C90.483 36.9127 89.9432 36.6821 89.3897 36.6821C88.2998 36.6821 87.3784 37.5804 87.3784 38.6439Z" fill="#10100F"/>
<path fill-rule="evenodd" clip-rule="evenodd" d="M92.2673 38.6439C92.2673 39.7074 93.1888 40.6091 94.2786 40.6091C95.3719 40.6091 96.2933 39.7074 96.2899 38.6439C96.2899 37.5804 95.3685 36.6821 94.2786 36.6821C93.1888 36.6821 92.2673 37.5804 92.2673 38.6439ZM93.2163 38.6439C93.2163 38.0451 93.7045 37.5391 94.2786 37.5391C94.8597 37.5391 95.3479 38.0451 95.3444 38.6439C95.3444 39.2462 94.8562 39.7556 94.2786 39.7556C93.701 39.7556 93.2163 39.2462 93.2163 38.6439Z" fill="#10100F"/>
<path d="M97.9745 40.5472H98.8994V39.0982H100.735V38.2481H98.9063V37.5976H100.931V36.7475H97.9745V40.5472Z" fill="#10100F"/>
<path d="M102.609 40.5472H103.541V39.0982H105.377V38.2481H103.541V37.5976H105.566V36.7475H102.609V40.5472Z" fill="#10100F"/>
<path d="M107.244 40.5472H110.2V39.6971H108.175V39.0363H110.011V38.1862H108.175V37.5976H110.2V36.7475H107.244V40.5472Z" fill="#10100F"/>
<path d="M111.882 40.5472H114.838V39.6971H112.813V39.0363H114.649V38.1862H112.813V37.5976H114.838V36.7475H111.882V40.5472Z" fill="#10100F"/>
<path fill-rule="evenodd" clip-rule="evenodd" d="M121.928 40.5472H122.993L122.069 39.2325C122.56 39.0259 122.859 38.582 122.859 38.0554C122.859 37.2982 122.251 36.7475 121.412 36.7475H119.696V40.5472H120.621V39.3598H121.092L121.928 40.5472ZM121.322 38.4959H120.618V37.608H121.322C121.677 37.608 121.907 37.7835 121.907 38.0519C121.907 38.3204 121.677 38.4959 121.322 38.4959Z" fill="#10100F"/>
<path fill-rule="evenodd" clip-rule="evenodd" d="M124.224 38.6439C124.224 39.7074 125.146 40.6091 126.235 40.6091C127.325 40.6091 128.247 39.7074 128.247 38.6439C128.247 37.5804 127.325 36.6821 126.235 36.6821C125.146 36.6821 124.224 37.5804 124.224 38.6439ZM125.173 38.6439C125.173 38.0451 125.658 37.5391 126.235 37.5391C126.813 37.5391 127.301 38.0451 127.301 38.6439C127.301 39.2462 126.813 39.7556 126.235 39.7556C125.658 39.7556 125.173 39.2462 125.173 38.6439Z" fill="#10100F"/>
<path fill-rule="evenodd" clip-rule="evenodd" d="M132.455 40.5472H133.49L131.943 36.7475H130.97L129.423 40.5472H130.454L130.688 39.9724H132.221L132.455 40.5472ZM131.014 39.1636L131.451 38.0864L131.888 39.1636H131.014Z" fill="#10100F"/>
<path d="M134.59 39.9827C135.033 40.3923 135.611 40.6091 136.261 40.6091C137.182 40.6091 137.753 40.1376 137.753 39.3839C137.753 38.6749 137.23 38.4168 136.388 38.2275C135.8 38.0932 135.663 38.0175 135.663 37.8179C135.663 37.6286 135.855 37.4944 136.13 37.4944C136.46 37.4944 136.814 37.632 137.127 37.8833L137.186 37.928L137.677 37.25L137.629 37.2087C137.217 36.8577 136.735 36.6856 136.151 36.6856C135.312 36.6856 134.727 37.1846 134.727 37.8971C134.727 38.6887 135.377 38.902 136.103 39.0672C136.684 39.2015 136.818 39.2738 136.818 39.4665C136.818 39.673 136.615 39.8038 136.292 39.8038C135.876 39.8038 135.498 39.6523 135.137 39.3426L135.082 39.2944L134.538 39.938L134.59 39.9827Z" fill="#10100F"/>
<path d="M140.187 40.5472H141.115V37.5976H142.253V36.7475H139.049V37.5976H140.187V40.5472Z" fill="#10100F"/>
<path d="M143.701 40.5472H146.658V39.6971H144.633V39.0363H146.469V38.1862H144.633V37.5976H146.658V36.7475H143.701V40.5472Z" fill="#10100F"/>
<path fill-rule="evenodd" clip-rule="evenodd" d="M150.405 40.5472H151.471L150.546 39.2325C151.038 39.0259 151.337 38.582 151.337 38.0554C151.337 37.2982 150.728 36.7475 149.889 36.7475H148.174V40.5472H149.099V39.3598H149.57L150.405 40.5472ZM149.803 38.4959H149.099V37.608H149.803C150.158 37.608 150.388 37.7835 150.388 38.0519C150.388 38.3204 150.158 38.4959 149.803 38.4959Z" fill="#10100F"/>
<path d="M152.626 39.9827C153.07 40.3923 153.647 40.6091 154.297 40.6091C155.218 40.6091 155.789 40.1376 155.796 39.3839C155.796 38.6749 155.273 38.4168 154.431 38.2275C153.843 38.0932 153.706 38.0175 153.706 37.8179C153.706 37.6286 153.898 37.4944 154.173 37.4944C154.503 37.4944 154.857 37.632 155.17 37.8833L155.229 37.928L155.72 37.25L155.669 37.2087C155.256 36.8577 154.775 36.6856 154.19 36.6856C153.352 36.6856 152.767 37.1846 152.767 37.8971C152.767 38.6887 153.417 38.902 154.142 39.0672C154.723 39.2015 154.857 39.2738 154.857 39.4665C154.857 39.673 154.655 39.8038 154.331 39.8038C153.915 39.8038 153.537 39.6523 153.176 39.3426L153.121 39.2944L152.578 39.938L152.626 39.9827Z" fill="#10100F"/>
</svg>
