<svg width="248" height="50" viewBox="0 0 248 50" fill="none" xmlns="http://www.w3.org/2000/svg">
<path d="M121.303 21.8814L121.304 21.8867C121.386 22.894 121.468 23.9013 121.544 24.909C121.731 27.8245 120.887 30.4095 119.05 32.6808C115.413 37.1812 108.234 36.6557 105.617 31.6384C103.766 28.0915 104.257 24.6209 106.388 21.3283C107.202 20.0739 108.392 19.3832 109.892 19.201C110.523 19.1247 111.163 19.0357 111.768 18.8535C113.414 18.3534 113.827 16.9974 112.779 15.6626C111.909 14.5523 110.847 14.2472 109.483 14.9506C108.17 15.6244 106.87 16.383 105.715 17.294C100.603 21.3325 98.5439 30.0027 104.397 35.7574C109.159 40.4442 117.157 40.1814 122.175 35.1556C126.101 31.2189 126.817 26.371 126.225 21.1799C126.065 19.7734 125.822 18.3763 125.58 16.9793L125.58 16.9788L125.58 16.9782L125.58 16.9777L125.58 16.9767L125.58 16.9761L125.579 16.9755L125.579 16.9751L125.579 16.9746L125.579 16.9741L125.579 16.9736L125.579 16.9731L125.579 16.9725L125.579 16.9719L125.579 16.9713C125.365 15.7364 125.151 14.5012 124.993 13.2598C124.622 10.3104 124.916 7.48395 127.095 5.16173C128.953 3.17853 131.562 2.60221 133.515 3.76756C135.267 4.81001 135.523 6.51777 134.133 7.9967C133.894 8.25142 133.634 8.48737 133.373 8.72309L133.373 8.72358C133.187 8.89156 133.002 9.05961 132.824 9.23409C132.381 9.66633 132.313 10.124 132.756 10.6198C133.617 11.5902 135.254 11.7555 136.201 10.8783C137.714 9.47139 138.443 7.71278 138.14 5.6533C137.616 2.06827 133.766 -0.520917 129.878 0.0893016C125.867 0.716469 123.471 3.32684 121.928 6.81441C120.747 9.48411 120.678 12.3657 120.828 15.2218C120.942 17.4443 121.123 19.6628 121.303 21.8814Z" fill="#272623"/>
<path d="M18.2166 35.2404C24.3129 35.3717 28.8319 32.4817 32.5835 28.0152C36.2712 23.625 38.7225 18.6628 39.7201 13.0225C40.1124 10.8147 39.8012 8.6493 38.9101 6.61524C38.0149 4.56847 36.105 3.85231 34.0885 3.62348C28.8874 3.03445 24.2404 4.23369 20.54 8.15773C19.0692 9.71718 18.2251 11.5055 18.3316 13.6836C18.353 14.137 18.3572 14.6074 18.2805 15.0523C18.0034 16.6457 16.6008 17.3788 15.0831 16.7559C14.2091 16.3957 14.0002 15.6837 14.0855 14.8574C14.4095 11.6877 15.4924 8.8188 17.7391 6.49658C21.8616 2.2293 26.7771 -0.232759 32.8862 0.195242C38.5307 0.589341 43.1307 5.13631 43.6807 10.7681C44.1198 15.26 42.7683 19.3451 40.803 23.2521C37.3583 30.0917 32.2937 35.2531 24.8416 37.7406C20.2373 39.2746 15.5393 39.4738 10.7986 38.4059C8.95687 37.9906 7.15354 38.0838 5.33741 38.5372C4.34835 38.783 3.32943 38.944 2.31478 39.0712C1.38967 39.1856 0.596711 38.8551 0.234336 37.9567C-0.145089 37.0159 -0.119495 36.0328 0.728882 35.3505C1.40247 34.8039 2.15706 34.2149 2.97133 34.003C7.04696 32.9478 9.66031 30.1722 12.0349 26.9389C15.9629 21.5884 19.9823 16.306 24.0017 11.0236L24.002 11.0231C24.5761 10.2687 25.1503 9.51408 25.7241 8.75947C26.5554 7.66617 27.4677 6.60676 28.4994 5.70839C29.2199 5.08546 30.1663 4.64474 31.0829 4.33963C32.0166 4.03029 33.1378 4.79306 33.5215 5.76771C33.8838 6.68304 33.5428 7.42886 32.7541 7.83567C28.8277 9.84007 26.2441 13.1878 23.7075 16.5991C20.2117 21.2986 16.7116 25.9981 13.2115 30.6976C13.0623 30.8968 12.9174 31.096 12.7895 31.3036C11.7066 33.0283 12.376 34.5327 14.418 34.8463C15.286 34.9808 16.1622 35.0568 17.038 35.1328C17.4311 35.1669 17.8243 35.201 18.2166 35.2404Z" fill="#272623"/>
<path fill-rule="evenodd" clip-rule="evenodd" d="M247.351 33.4987C247.556 33.4055 247.935 33.4012 247.986 33.7275C248.319 35.9014 242.534 39.0881 238.816 38.7703C237.563 38.461 236.395 37.9524 236.045 36.0159C236.147 35.7489 235.892 35.3929 235.55 35.4226C235.376 35.4056 235.197 35.4777 235.103 35.6133C234.834 35.7574 234.578 35.9184 234.353 36.1091C233.67 36.5105 233.068 37.0321 232.483 37.5404L232.482 37.5409L232.481 37.5415C231.386 38.4925 230.343 39.3971 228.921 39.3805C227.493 39.3636 225.882 38.372 226.252 36.8083C226.449 35.9789 227.343 35.3282 228.195 34.7081C229.023 34.1052 229.811 33.5313 229.88 32.8503C229.987 31.8164 227.075 33.8292 226.474 34.2488C226.357 34.3292 226.241 34.4098 226.126 34.49L226.122 34.4929C225.515 34.9146 224.921 35.3272 224.253 35.6684C222.885 36.3689 221.78 35.9904 220.638 35.5989C219.769 35.3011 218.879 34.9958 217.833 35.1514C216.55 35.3442 215.391 36.0987 214.222 36.8598C212.668 37.8714 211.096 38.8947 209.191 38.6262C208.192 38.4862 207.712 38.0636 207.117 37.5409C206.938 37.3832 206.748 37.2165 206.531 37.0456C206.191 36.7779 206.462 36.6966 206.495 36.6881C206.479 36.6916 206.394 36.7067 206.168 36.7235C205.977 36.7373 205.694 36.9158 205.443 37.074C205.308 37.1592 205.183 37.2384 205.086 37.2829C203.278 38.1092 201.249 38.6008 199.271 38.783C196.176 39.0669 194.159 36.8634 193.984 33.6301C193.971 33.4648 193.788 33.3758 193.656 33.4818C191.09 35.5709 186.464 38.4143 183.458 38.8423C182.137 39.033 180.581 39.0797 179.379 38.3889C179.075 38.2149 178.858 37.8426 178.65 37.486C178.457 37.1567 178.273 36.8408 178.036 36.7066C177.94 36.6856 177.754 36.79 177.583 36.8855C177.478 36.944 177.379 36.9992 177.311 37.0202C175.209 37.6431 163.814 40.7154 165.651 35.7192C162.705 37.2617 159.678 38.7152 156.276 38.3084C155.375 38.2009 154.831 37.8422 154.344 37.5214C153.45 36.9319 152.749 36.4699 150.38 37.927C148.875 38.8508 145.9 38.8847 144.237 38.2109C143.605 37.9537 143.024 37.4798 142.443 37.006C141.703 36.4028 140.964 35.7996 140.119 35.6429C137.957 35.2404 136.15 35.8082 134.163 36.8719C131.805 38.1304 129.32 39.389 126.63 38.2152C119.911 35.2827 131.673 25.0362 133.95 29.8628C133.873 29.4984 133.835 29.1001 133.894 28.6424C134.052 27.405 135.033 27.1719 136.175 27.2186C138.007 27.2953 138.163 28.4953 138.388 30.2213C138.399 30.3068 138.41 30.3935 138.422 30.4815C138.656 32.2401 139.867 34.6937 142.135 33.0283C142.494 32.7648 142.893 32.5096 143.296 32.2523C143.885 31.8767 144.48 31.4965 144.966 31.079C146.744 29.5465 148.275 27.7742 149.805 26.0031C151.278 24.2972 152.751 22.5923 154.443 21.1037C154.593 20.9719 154.746 20.835 154.902 20.6956C156.395 19.3604 158.147 17.7935 160.262 18.2348C161.938 18.5865 162.492 19.5781 161.938 21.1037C160.024 26.395 154.639 29.0683 149.93 31.4062L149.606 31.5673C149.484 31.6279 149.363 31.6883 149.242 31.7486L149.167 31.7858L149.102 31.8178C148.069 32.3281 146.242 33.2305 146.266 34.5581C146.304 36.4839 149.046 35.9048 149.978 35.7081L150.005 35.7023C150.334 35.6323 150.673 35.5795 151.012 35.5267C152.398 35.3107 153.791 35.0938 154.575 33.6979C155.529 32.0051 157.401 30.8998 159.242 29.8123C160.264 29.2091 161.276 28.6114 162.117 27.922C164.794 25.7269 165.374 29.0111 163.089 30.9731C162.965 31.0796 162.836 31.1912 162.704 31.3058C161.938 31.9706 161.056 32.7364 160.245 33.2063C159.32 33.7445 157.866 35.0963 159.849 34.8886C161.454 34.7192 163.309 33.7634 164.949 32.9185C165.482 32.6435 165.993 32.3802 166.465 32.1596C167.054 31.8853 168.949 30.5148 170.223 29.5938L170.225 29.5923L170.225 29.5918L170.23 29.5887C170.704 29.2457 171.091 28.9657 171.291 28.8288C172.562 28.2864 173.517 29.0789 173.538 30.5366C173.551 31.2104 173.291 31.6977 172.886 32.2189C172.762 32.3781 172.607 32.5065 172.453 32.6343C172.299 32.7618 172.146 32.8887 172.024 33.0453C171.138 33.5665 169.727 34.6217 169.769 35.5963C170.554 36.4057 174.067 35.6048 174.889 35.3548C175.12 35.2446 175.363 35.1217 175.627 34.9861C175.668 34.9671 175.704 34.9412 175.74 34.9149C175.76 34.9003 175.78 34.8854 175.802 34.8717C176.848 34.5394 177.642 33.6681 178.382 32.8568C178.519 32.7058 178.655 32.5569 178.79 32.4139C178.893 32.3045 178.995 32.1951 179.098 32.0857C179.774 31.3642 180.45 30.6436 181.161 29.9518C181.306 29.8173 181.451 29.6823 181.596 29.5475C182.206 28.9777 182.812 28.4123 183.488 27.905C183.662 27.7734 183.848 27.6591 184.034 27.5447C184.249 27.4125 184.464 27.2802 184.661 27.1211C184.679 27.1068 184.699 27.0916 184.72 27.0757C184.879 26.9545 185.098 26.7881 185.147 26.6083C185.253 26.2267 184.978 26.2605 184.7 26.2946C184.645 26.3014 184.589 26.3082 184.537 26.3117C184.081 26.3414 183.625 26.3753 183.168 26.4092C182.921 26.4304 182.67 26.4473 182.431 26.388C181.148 26.0786 182.218 24.0615 182.951 23.6717C183.36 23.4556 183.818 23.4315 184.271 23.4075C184.485 23.3963 184.697 23.3851 184.904 23.3538C184.968 23.3454 185.027 23.3327 185.091 23.3199L185.202 23.1886C185.462 23.1674 185.701 23.1462 185.927 23.125C186.797 22.8708 187.589 22.4597 188.348 21.8707C189.368 21.0802 190.249 20.1173 191.126 19.1584C191.617 18.6214 192.107 18.0857 192.62 17.5822C192.695 17.5085 192.774 17.4301 192.856 17.3479C194.14 16.0725 196.357 13.8694 198.171 13.9251C201.411 14.0237 195.335 19.7298 194.194 20.8011C194.109 20.8813 194.051 20.9357 194.027 20.9596C193.742 21.2414 193.432 21.4912 193.163 21.7075C192.721 22.0636 192.391 22.3291 192.471 22.4978C192.516 22.4957 192.559 22.4925 192.603 22.4894C192.647 22.4862 192.69 22.483 192.735 22.4809C197.701 22.1442 198.026 22.727 199.095 24.6486L199.117 24.6887C199.279 24.9811 199.109 25.176 198.866 25.2438C196.29 25.9579 195.823 25.9313 194.621 25.8627C194.018 25.8283 193.231 25.7834 191.9 25.8159C191.456 25.8244 191.055 25.8328 190.693 25.8413C188.272 26.5871 186.289 28.706 184.699 30.5832C184.63 30.6643 184.558 30.7482 184.484 30.8348C183.643 31.8165 182.513 33.1361 182.422 34.4056C182.265 36.6769 185.283 35.9692 186.583 35.3717C188.497 34.4934 190.118 33.0653 191.714 31.6598C192.352 31.0987 192.985 30.5413 193.63 30.0239C194.794 29.0916 200.571 25.4557 200.085 29.2229C199.984 29.9966 199.409 30.7485 198.884 31.4351C198.676 31.7076 198.476 31.9698 198.316 32.2189C198.257 32.3106 198.199 32.3994 198.143 32.4855L198.14 32.4902C197.266 33.8352 196.812 34.535 199.578 35.3505C200.793 35.7107 202.477 35.287 203.636 34.7361C205.099 34.0432 206.218 32.9359 207.338 31.8269C208.218 30.9553 209.1 30.0826 210.15 29.4094C211.451 28.5788 212.857 28.1254 214.294 28.9136C214.396 28.9687 214.486 29.0238 214.576 29.0789C215.415 26.9643 219.06 26.6338 220.233 28.761C220.572 29.3745 220.339 30.4125 220.144 31.2862C220.064 31.6437 219.99 31.9738 219.964 32.2359C219.738 34.5157 224.202 32.274 225.664 31.1341C227.25 29.8967 229.215 28.5788 231.172 28.0406C232.549 27.6635 234.191 27.8076 234.783 29.3755C235.184 30.4391 234.758 31.6003 234.144 32.613C236.407 31.1553 239.908 29.2484 240.658 31.6596C240.858 32.3024 240.713 32.9734 240.585 33.5611C240.352 34.6354 240.18 35.4316 242.291 35.27C243.533 35.1739 245.002 34.5334 246.244 33.9918C246.48 33.8888 246.708 33.7893 246.925 33.6979C246.994 33.6643 247.065 33.6318 247.136 33.5993L247.136 33.599L247.138 33.5984C247.178 33.58 247.218 33.5616 247.257 33.5431L247.285 33.5302L247.311 33.5179C247.324 33.5115 247.338 33.5051 247.351 33.4987ZM152.584 26.5321C152.438 26.68 152.292 26.827 152.145 26.9739L152.144 26.9744C151.648 27.4715 151.153 27.9676 150.696 28.4941C151.933 27.9223 153.157 26.9797 154.189 26.1854C154.32 26.0849 154.447 25.9868 154.571 25.8922C154.627 25.8494 154.71 25.7903 154.811 25.7187C155.398 25.301 156.582 24.4584 156.498 23.9556C156.319 22.875 153.194 25.8964 152.904 26.21C152.852 26.2703 152.798 26.3286 152.744 26.3876C152.718 26.4157 152.691 26.444 152.665 26.4727C152.644 26.4981 152.614 26.5151 152.584 26.5321ZM130.441 35.5963C131.055 35.9099 132.829 34.7615 133.234 34.4056C134.963 32.8766 134.598 31.842 134.211 30.743L134.184 30.668C134.253 31.4874 133.587 31.7872 132.792 32.1451C132.699 32.187 132.604 32.2296 132.509 32.274C132.137 32.4461 131.692 32.5088 131.25 32.5712C130.875 32.6241 130.501 32.6767 130.177 32.7953C129.533 33.0283 128.237 34.4649 130.441 35.5963ZM210.547 33.9521C210.705 35.7955 214.273 33.6852 214.588 33.2868C215.266 32.4351 215.032 31.8969 214.755 31.2951C214.324 31.6333 213.584 31.9836 212.844 32.3341C211.674 32.8884 210.502 33.4433 210.547 33.9521Z" fill="#272623"/>
<path d="M26.8079 32.3528C26.81 32.3562 26.812 32.3596 26.8154 32.363C26.8197 32.363 26.824 32.3588 26.824 32.3545C26.8231 32.3537 26.8222 32.3529 26.8212 32.3522L26.8191 32.3508C26.8179 32.35 26.8166 32.3493 26.8153 32.3487L26.8131 32.3477L26.809 32.3461C26.8072 32.3453 26.8054 32.3446 26.8036 32.3438C26.8021 32.3431 26.8006 32.3424 26.7992 32.3415C26.7978 32.3402 26.7961 32.3389 26.7941 32.3376C26.7957 32.3391 26.7974 32.3404 26.7992 32.3415C26.8034 32.3453 26.8057 32.3491 26.8079 32.3528Z" fill="#272623"/>
<path d="M202.958 25.8413C204.126 25.8413 205.077 24.9472 205.077 23.8454C205.077 22.7436 204.131 21.8495 202.958 21.8495C201.79 21.8495 200.839 22.7436 200.839 23.8454C200.839 24.9472 201.786 25.8413 202.958 25.8413Z" fill="#272623"/>
<path fill-rule="evenodd" clip-rule="evenodd" d="M96.715 33.9182C96.7491 33.9437 96.7661 33.986 96.7661 34.0326C96.7917 34.1047 96.7704 34.1767 96.7192 34.2361C94.95 39.1941 80.34 40.7027 79.1122 35.0666C78.8662 35.2653 78.6088 35.4804 78.342 35.7035C76.6336 37.1315 74.5366 38.8844 72.5639 38.7195C69.9761 38.5033 71.4085 35.7531 72.3337 34.2021C71.6938 34.5891 71.0578 35.0168 70.4175 35.4473C68.4426 36.7752 66.4267 38.1307 64.1313 38.4059C62.6732 38.5796 60.2091 38.8551 59.3906 37.1685C58.5463 35.4278 60.7543 33.1641 62.2145 31.667C62.8409 31.0248 63.3297 30.5236 63.3809 30.2654C63.3059 30.2625 63.146 30.218 62.9345 30.1592C62.2085 29.9571 60.8739 29.5856 60.2731 30.1467C59.9515 30.4481 59.2873 31.4783 58.607 32.5337C57.8715 33.6746 57.1169 34.8452 56.7559 35.1556C54.7139 36.9185 51.9854 38.6474 49.1418 38.4143C48.2232 38.3393 47.489 38.0095 46.768 37.6856C45.7391 37.2235 44.7368 36.7733 43.2629 37.0922C42.7066 37.2118 42.1722 37.4203 41.6349 37.63C41.0109 37.8735 40.3828 38.1186 39.7116 38.2279C37.6781 38.5542 36.0069 38.1559 35.1926 36.2998V36.1515C35.1713 36.1642 35.15 36.1726 35.1287 36.1811C35.0903 35.7658 35.0349 35.3548 34.9582 34.9522V34.8547C34.9582 34.8064 34.9536 34.7581 34.949 34.7098C34.9459 34.6776 34.9428 34.6454 34.9411 34.6132C35.0519 34.181 35.1287 33.7487 35.1798 33.3165C35.1968 33.2583 35.2143 33.2007 35.2318 33.1432C35.2626 33.0416 35.2933 32.9404 35.3205 32.8376C35.5294 32.613 35.7255 32.3715 35.9302 32.1088C37.2305 30.4646 38.8206 29.2823 40.6197 28.2313C42.6149 27.0702 45.4712 26.5999 47.6241 27.6847C48.3745 28.0406 49.0481 28.6043 49.5937 29.4221C50.148 30.2569 50.8642 31.5367 50.6553 32.5537C50.6139 32.757 49.9804 33.2854 49.4092 33.7618C48.9207 34.1692 48.4778 34.5387 48.4896 34.6344C48.6302 35.7404 52.0835 34.8336 52.74 34.52C53.7812 34.0205 54.2808 32.95 54.7576 31.9286C54.8996 31.6243 55.0396 31.3243 55.1913 31.0451C55.273 30.8954 55.3552 30.7425 55.4384 30.5876C56.0808 29.3924 56.7862 28.0799 57.8089 27.2058C59.9192 25.4048 62.5624 26.4219 64.6684 27.6974C66.5954 28.4602 68.0577 29.7569 66.6124 30.8121C65.5765 31.5663 61.8206 34.9692 64.9498 34.6852C66.8512 34.5115 68.9956 33.3758 70.59 32.4562C75.0451 29.8883 78.6645 26.0363 82.041 22.2182C82.1159 22.1333 82.212 22.0233 82.3268 21.892L82.3277 21.891C83.9454 20.0406 89.2626 13.9587 91.1728 14.0735C93.4408 14.2091 91.9913 17.0398 91.258 18.0229C90.0465 19.6493 87.621 22.0214 85.1124 24.4748C82.1305 27.3911 79.0313 30.4221 77.7139 32.452C79.1313 31.7149 80.6745 30.6942 82.2294 29.6657C84.2052 28.3589 86.1999 27.0395 87.9797 26.2736C89.7489 25.5108 93.0955 26.7694 91.1088 29.2526C90.3585 30.1891 89.3481 30.418 88.2951 30.6214C87.2805 30.8163 84.6458 31.4731 84.1342 32.4605C83.6397 33.4097 84.8632 34.6174 85.9376 34.9692C86.827 35.2611 88.0175 35.1541 88.952 35.07L89.0369 35.0624C90.5205 34.931 91.8037 34.5708 93.1253 33.9309C93.2945 33.8497 93.4674 33.7534 93.6438 33.6551C94.1295 33.3844 94.6423 33.0987 95.1802 33.0707C96.0116 33.0283 96.3569 33.2317 96.715 33.9182ZM42.3889 34.164C43.5144 33.6936 45.3391 32.8843 45.8336 31.6511C46.1064 30.3035 44.1752 30.8205 43.4078 31.0748C42.1758 31.4816 40.5344 32.2232 39.8651 33.4055C38.7865 35.3039 41.5192 34.5285 42.3889 34.164Z" fill="#272623"/>
<path d="M54.846 49.2288C55.396 49.733 56.1122 50 56.9179 50C58.0605 50 58.7681 49.4194 58.7724 48.4872C58.7724 47.6142 58.1244 47.2964 57.0799 47.0633C56.3509 46.8981 56.1804 46.8048 56.1804 46.5591C56.1804 46.326 56.4191 46.1607 56.7602 46.1607C57.1695 46.1607 57.6086 46.3302 57.9965 46.6396L58.069 46.6989L58.6786 45.8641L58.6189 45.8132C58.1074 45.381 57.5105 45.1691 56.7858 45.1691C55.7455 45.1691 55.0208 45.7836 55.0208 46.6608C55.0208 47.6354 55.8265 47.8981 56.7261 48.1015C57.4466 48.2668 57.6128 48.3558 57.6128 48.5931C57.6128 48.8474 57.3613 49.0084 56.9605 49.0084C56.4447 49.0084 55.9758 48.8219 55.5281 48.4406L55.4599 48.3812L54.7863 49.1737L54.846 49.2288Z" fill="#272623"/>
<path fill-rule="evenodd" clip-rule="evenodd" d="M60.58 49.9237H61.7268V48.466H62.7074C63.7476 48.466 64.5022 47.788 64.5022 46.8557C64.5022 45.9234 63.7476 45.2454 62.7074 45.2454H60.58V49.9237ZM62.6008 47.4023H61.7268V46.309H62.6008C63.0399 46.309 63.3255 46.5209 63.3255 46.8557C63.3255 47.1862 63.0399 47.4023 62.6008 47.4023Z" fill="#272623"/>
<path d="M66.3098 49.9237H69.9761V48.877H67.4608V48.0634H69.7374V47.0167H67.4608V46.2921H69.9761V45.2454H66.3098V49.9237Z" fill="#272623"/>
<path d="M71.788 47.5803C71.788 48.8897 72.9305 50 74.282 50C74.9641 50 75.6291 49.7161 76.1023 49.216L76.1663 49.1525L75.3264 48.4024L75.2668 48.4702C75.0024 48.7711 74.6401 48.9448 74.2777 48.9448C73.5615 48.9448 72.9604 48.3177 72.9604 47.5761C72.9604 46.8387 73.5615 46.2158 74.2777 46.2158C74.6443 46.2158 75.0024 46.3895 75.2668 46.6904L75.3264 46.7582L76.1663 46.0082L76.1066 45.9446C75.6334 45.4488 74.9683 45.1649 74.282 45.1649C72.9305 45.1649 71.788 46.2709 71.788 47.5803Z" fill="#272623"/>
<path d="M77.9441 49.9237H79.0951V45.2454H77.9441V49.9237Z" fill="#272623"/>
<path fill-rule="evenodd" clip-rule="evenodd" d="M84.6245 49.9237H85.9077L83.9893 45.2454H82.7828L80.8643 49.9237H82.1433L82.4332 49.216H84.3346L84.6245 49.9237ZM82.8382 48.2202L83.3796 46.8938L83.9211 48.2202H82.8382Z" fill="#272623"/>
<path d="M87.6769 49.9237H91.0832V48.877H88.828V45.2454H87.6769V49.9237Z" fill="#272623"/>
<path d="M94.3062 49.9237H95.4573V46.2921H96.8684V45.2454H92.8951V46.2921H94.3062V49.9237Z" fill="#272623"/>
<path d="M101.613 49.9237V48.2329L103.451 45.2412H102.155L101.034 47.1269L99.955 45.2412H98.6121L100.454 48.2329V49.9237H101.613Z" fill="#272623"/>
<path d="M108.349 47.5803C108.349 48.8897 109.492 50 110.843 50C111.525 50 112.19 49.7161 112.668 49.216L112.732 49.1525L111.892 48.4024L111.832 48.4702C111.568 48.7711 111.206 48.9448 110.843 48.9448C110.127 48.9448 109.526 48.3177 109.526 47.5761C109.526 46.8387 110.131 46.2158 110.843 46.2158C111.21 46.2158 111.568 46.3895 111.832 46.6904L111.892 46.7582L112.732 46.0082L112.668 45.9446C112.199 45.4488 111.53 45.1649 110.843 45.1649C109.492 45.1649 108.349 46.2709 108.349 47.5803Z" fill="#272623"/>
<path fill-rule="evenodd" clip-rule="evenodd" d="M114.412 47.5803C114.412 48.8897 115.554 50 116.905 50C118.257 50 119.399 48.894 119.399 47.5803C119.399 46.2709 118.257 45.1649 116.905 45.1649C115.554 45.1649 114.412 46.2709 114.412 47.5803ZM115.588 47.5803C115.588 46.843 116.194 46.22 116.905 46.22C117.622 46.22 118.231 46.843 118.227 47.5803C118.227 48.3219 117.622 48.9491 116.905 48.9491C116.189 48.9491 115.588 48.3219 115.588 47.5803Z" fill="#272623"/>
<path d="M121.488 49.9237H122.644V48.1397H124.92V47.093H122.644V46.2921H125.155V45.2454H121.488V49.9237Z" fill="#272623"/>
<path d="M127.235 49.9237H128.386V48.1397H130.663V47.093H128.386V46.2921H130.902V45.2454H127.235V49.9237Z" fill="#272623"/>
<path d="M132.982 49.9237H136.648V48.877H134.133V48.0634H136.41V47.0167H134.133V46.2921H136.648V45.2454H132.982V49.9237Z" fill="#272623"/>
<path d="M138.733 49.9237H142.399V48.877H139.884V48.0634H142.161V47.0167H139.884V46.2921H142.399V45.2454H138.733V49.9237Z" fill="#272623"/>
<path fill-rule="evenodd" clip-rule="evenodd" d="M151.19 49.9237H152.512L151.365 48.305C151.975 48.0507 152.346 47.504 152.346 46.8557C152.346 45.9234 151.591 45.2454 150.551 45.2454H148.423V49.9237H149.57V48.4617H150.154L151.19 49.9237ZM150.44 47.4023H149.566V46.309H150.44C150.879 46.309 151.165 46.5252 151.165 46.8557C151.165 47.1862 150.879 47.4023 150.44 47.4023Z" fill="#272623"/>
<path fill-rule="evenodd" clip-rule="evenodd" d="M154.034 47.5803C154.034 48.8897 155.176 50 156.528 50C157.883 50 159.026 48.894 159.022 47.5803C159.022 46.2709 157.879 45.1649 156.528 45.1649C155.176 45.1649 154.034 46.2709 154.034 47.5803ZM155.21 47.5803C155.21 46.843 155.811 46.22 156.528 46.22C157.248 46.22 157.854 46.843 157.849 47.5803C157.849 48.3219 157.244 48.9491 156.528 48.9491C155.811 48.9491 155.21 48.3219 155.21 47.5803Z" fill="#272623"/>
<path fill-rule="evenodd" clip-rule="evenodd" d="M164.244 49.9237H165.527L163.609 45.2454H162.402L160.484 49.9237H161.763L162.053 49.216H163.954L164.244 49.9237ZM162.458 48.2202L162.999 46.8938L163.541 48.2202H162.458Z" fill="#272623"/>
<path d="M166.892 49.2288C167.442 49.733 168.158 50 168.963 50C170.102 50 170.814 49.4194 170.818 48.4914C170.818 47.6185 170.17 47.3006 169.125 47.0676C168.396 46.9023 168.226 46.8091 168.226 46.5633C168.226 46.3302 168.465 46.165 168.806 46.165C169.215 46.165 169.654 46.3345 170.042 46.6438L170.115 46.6989L170.724 45.8641L170.66 45.8132C170.149 45.381 169.552 45.1691 168.827 45.1691C167.787 45.1691 167.062 45.7836 167.062 46.6608C167.062 47.6354 167.868 47.8981 168.767 48.1015C169.488 48.2668 169.654 48.3558 169.654 48.5931C169.654 48.8474 169.403 49.0084 169.002 49.0084C168.486 49.0084 168.017 48.8219 167.569 48.4406L167.501 48.3812L166.828 49.1737L166.892 49.2288Z" fill="#272623"/>
<path d="M173.828 49.9237H174.979V46.2921H176.39V45.2454H172.417V46.2921H173.828V49.9237Z" fill="#272623"/>
<path d="M178.189 49.9237H181.855V48.877H179.344V48.0634H181.621V47.0167H179.344V46.2921H181.855V45.2454H178.189V49.9237Z" fill="#272623"/>
<path fill-rule="evenodd" clip-rule="evenodd" d="M186.502 49.9237H187.824L186.677 48.305C187.287 48.0507 187.658 47.504 187.658 46.8557C187.658 45.9234 186.903 45.2454 185.863 45.2454H183.736V49.9237H184.882V48.4617H185.466L186.502 49.9237ZM185.756 47.4023H184.882V46.309H185.756C186.195 46.309 186.481 46.5252 186.481 46.8557C186.481 47.1862 186.195 47.4023 185.756 47.4023Z" fill="#272623"/>
<path d="M189.256 49.2288C189.806 49.733 190.522 50 191.328 50C192.471 50 193.178 49.4194 193.187 48.4914C193.187 47.6185 192.539 47.3006 191.495 47.0676C190.766 46.9023 190.595 46.8091 190.595 46.5633C190.595 46.3302 190.834 46.165 191.175 46.165C191.584 46.165 192.023 46.3345 192.411 46.6438L192.484 46.6989L193.093 45.8641L193.029 45.8132C192.518 45.381 191.921 45.1691 191.196 45.1691C190.156 45.1691 189.431 45.7836 189.431 46.6608C189.431 47.6354 190.237 47.8981 191.136 48.1015C191.857 48.2668 192.023 48.3558 192.023 48.5931C192.023 48.8474 191.772 49.0084 191.371 49.0084C190.855 49.0084 190.386 48.8219 189.938 48.4406L189.87 48.3812L189.197 49.1737L189.256 49.2288Z" fill="#272623"/>
</svg>
