<svg width="24" height="25" viewBox="0 0 24 25" fill="none" xmlns="http://www.w3.org/2000/svg">
<path d="M21.84 9.06099L21.75 8.70099C21.6299 8.35166 21.4723 8.01637 21.28 7.70099C20.8409 6.96783 20.2121 6.36671 19.46 5.96099L14.21 3.12099C13.5158 2.75154 12.7414 2.55832 11.955 2.55832C11.1686 2.55832 10.3942 2.75154 9.7 3.12099L4.45 5.96099C3.69785 6.36671 3.0691 6.96783 2.63 7.70099C2.43475 8.0134 2.28017 8.34944 2.17 8.70099V8.84099C2.05824 9.24147 2.00106 9.65521 2 10.071V17.691C2.00264 18.95 2.50394 20.1566 3.39416 21.0468C4.28439 21.9371 5.49103 22.4383 6.75 22.441H17.25C17.8738 22.441 18.4915 22.3181 19.0677 22.0794C19.644 21.8407 20.1677 21.4908 20.6088 21.0497C21.0498 20.6087 21.3997 20.085 21.6384 19.5087C21.8771 18.9324 22 18.3148 22 17.691V10.061C21.9822 9.72294 21.9285 9.38773 21.84 9.06099ZM13.58 12.411C13.0843 12.6914 12.5245 12.8388 11.955 12.8388C11.3855 12.8388 10.8257 12.6914 10.33 12.411L3.8 8.63099C3.83 8.55499 3.867 8.48099 3.91 8.41099C4.21181 7.90892 4.6437 7.49775 5.16 7.22099L10.41 4.38099C10.8824 4.12361 11.412 3.98948 11.95 3.99099C12.4911 3.98951 13.024 4.12359 13.5 4.38099L18.75 7.22099C19.3677 7.55495 19.8594 8.0817 20.15 8.72099L13.58 12.411Z" fill="#1D1D1B"/>
</svg>
