<svg width="50" height="50" viewBox="0 0 50 50" fill="none" xmlns="http://www.w3.org/2000/svg">
<rect width="50" height="50" rx="25" fill="#1D1D1B"/>
<path d="M24.6746 24.6674C24.6844 24.7898 24.6943 24.9122 24.7034 25.0346C24.7256 25.3898 24.624 25.7047 24.4017 25.9814C23.9618 26.5297 23.0934 26.4657 22.7767 25.8544C22.5529 25.4223 22.6122 24.9995 22.8701 24.5984C22.9686 24.4456 23.1124 24.3614 23.294 24.3392C23.3703 24.3299 23.4476 24.3191 23.5209 24.2969C23.7199 24.236 23.77 24.0708 23.6431 23.9081C23.5379 23.7729 23.4095 23.7357 23.2445 23.8214C23.0856 23.9035 22.9283 23.9959 22.7886 24.1069C22.1702 24.5989 21.9211 25.6551 22.6292 26.3562C23.2053 26.9272 24.1732 26.8952 24.7797 26.2829C25.2547 25.8033 25.3413 25.2127 25.2696 24.5803C25.2502 24.4086 25.2208 24.2381 25.1915 24.0675C25.1656 23.9171 25.1397 23.7666 25.1206 23.6154C25.0757 23.2561 25.1113 22.9118 25.3749 22.6288C25.5997 22.3872 25.9153 22.317 26.1515 22.459C26.3635 22.586 26.3944 22.794 26.2263 22.9742C26.1974 23.0052 26.1659 23.034 26.1344 23.0627C26.1119 23.0832 26.0894 23.1037 26.068 23.125C26.0143 23.1776 26.0061 23.2334 26.0597 23.2938C26.1639 23.412 26.3619 23.4321 26.4764 23.3253C26.6595 23.1539 26.7477 22.9396 26.7111 22.6887C26.6476 22.252 26.1819 21.9365 25.7116 22.0109C25.2263 22.0873 24.9365 22.4053 24.7498 22.8302C24.607 23.1554 24.5987 23.5065 24.6168 23.8544C24.631 24.1258 24.6528 24.3966 24.6746 24.6674Z" fill="white"/>
<path d="M12.2036 26.2932C12.9411 26.3092 13.4877 25.9572 13.9416 25.413C14.3876 24.8782 14.6842 24.2736 14.8049 23.5865C14.8523 23.3175 14.8147 23.0537 14.7069 22.8059C14.5986 22.5566 14.3675 22.4693 14.1236 22.4414C13.4944 22.3697 12.9323 22.5158 12.4847 22.9938C12.3068 23.1838 12.2046 23.4017 12.2175 23.667C12.2201 23.7223 12.2206 23.7796 12.2114 23.8338C12.1778 24.0279 12.0082 24.1172 11.8246 24.0413C11.7188 23.9974 11.6936 23.9107 11.7039 23.81C11.7431 23.4239 11.8741 23.0744 12.1459 22.7915C12.6445 22.2716 13.2392 21.9716 13.9782 22.0238C14.661 22.0718 15.2174 22.6257 15.284 23.3119C15.3371 23.8591 15.1736 24.3568 14.9358 24.8327C14.5192 25.666 13.9065 26.2948 13.005 26.5978C12.4481 26.7847 11.8797 26.809 11.3063 26.6789C11.0835 26.6283 10.8653 26.6397 10.6457 26.6949C10.526 26.7248 10.4028 26.7445 10.28 26.7599C10.1681 26.7739 10.0722 26.7336 10.0283 26.6242C9.98245 26.5096 9.98554 26.3898 10.0882 26.3067C10.1697 26.2401 10.2609 26.1683 10.3594 26.1425C10.8525 26.0139 11.1686 25.6758 11.4558 25.2819C11.931 24.6301 12.4171 23.9866 12.9033 23.3431C12.9728 23.2512 13.0423 23.1592 13.1118 23.0671C13.2123 22.9339 13.3227 22.8049 13.4475 22.6954C13.5347 22.6195 13.6492 22.5659 13.76 22.5287C13.873 22.491 14.0086 22.5839 14.055 22.7027C14.0988 22.8142 14.0581 22.905 13.9622 22.9546C13.4872 23.1988 13.1747 23.6066 12.8678 24.0222C12.445 24.5948 12.0216 25.1673 11.5982 25.7398C11.5801 25.7641 11.5626 25.7883 11.5471 25.8136C11.4161 26.0238 11.4971 26.207 11.7441 26.2452C11.8494 26.2613 11.9556 26.2707 12.0619 26.2801C12.1092 26.2843 12.1564 26.2885 12.2036 26.2932Z" fill="white"/>
<path fill-rule="evenodd" clip-rule="evenodd" d="M39.9215 26.0811C39.9463 26.0697 39.9922 26.0692 39.9983 26.1089C40.0386 26.3738 39.3387 26.762 38.8896 26.7233C38.7379 26.6856 38.5966 26.6236 38.5544 26.3877C38.5667 26.3552 38.5358 26.3118 38.4945 26.3154C38.4734 26.3134 38.4517 26.3222 38.4404 26.3387C38.4079 26.3562 38.3769 26.3758 38.3496 26.3991C38.2669 26.448 38.1942 26.5116 38.1232 26.5736C37.9907 26.6895 37.8646 26.7996 37.6926 26.7976C37.5198 26.7956 37.3249 26.6748 37.3698 26.4843C37.3936 26.3832 37.5017 26.3039 37.6047 26.2284C37.7049 26.155 37.8002 26.085 37.8086 26.0021C37.8215 25.8761 37.4693 26.1213 37.3966 26.1724C37.3822 26.1824 37.368 26.1923 37.3539 26.2022C37.2805 26.2536 37.2087 26.3038 37.1279 26.3454C36.9624 26.4307 36.8288 26.3846 36.6906 26.3369C36.5855 26.3006 36.4778 26.2634 36.3512 26.2824C36.196 26.3059 36.0558 26.3978 35.9144 26.4905C35.7264 26.6138 35.5363 26.7384 35.3059 26.7057C35.185 26.6887 35.1269 26.6372 35.055 26.5735C35.0333 26.5543 35.0104 26.534 34.9841 26.5132C34.943 26.4806 34.9757 26.4706 34.9798 26.4696C34.9778 26.47 34.9676 26.4719 34.9403 26.4739C34.9171 26.4756 34.8829 26.4974 34.8525 26.5166C34.8362 26.527 34.821 26.5367 34.8093 26.5421C34.5906 26.6427 34.3451 26.7026 34.1058 26.7248C33.7314 26.7594 33.4875 26.491 33.4664 26.0971C33.4648 26.0769 33.4421 26.0661 33.4266 26.079C33.1162 26.3335 32.5566 26.6799 32.1931 26.7321C32.0332 26.7553 31.8444 26.761 31.699 26.6768C31.6623 26.6556 31.636 26.6103 31.6108 26.5668C31.5876 26.5267 31.5653 26.4882 31.5366 26.4719C31.5251 26.4693 31.5024 26.482 31.4818 26.4937C31.4691 26.5008 31.4571 26.5075 31.4489 26.5101C31.1946 26.586 29.8162 26.9602 30.0384 26.3516C29.6821 26.5395 29.3159 26.7166 28.9044 26.667C28.7953 26.6539 28.7295 26.6102 28.6706 26.5711C28.5624 26.4993 28.4777 26.443 28.1912 26.6206C28.0091 26.7331 27.6491 26.7372 27.448 26.6551C27.3716 26.6238 27.3013 26.5661 27.231 26.5083C27.1415 26.4349 27.0521 26.3614 26.9498 26.3423C26.6884 26.2932 26.4697 26.3624 26.2294 26.492C25.9442 26.6453 25.6435 26.7987 25.3181 26.6557C24.5054 26.2984 25.9282 25.0501 26.2036 25.6381C26.1943 25.5937 26.1897 25.5452 26.1969 25.4894C26.216 25.3387 26.3346 25.3103 26.4728 25.316C26.6944 25.3253 26.7133 25.4715 26.7405 25.6818C26.7418 25.6922 26.7432 25.7028 26.7446 25.7135C26.7729 25.9277 26.9194 26.2266 27.1938 26.0238C27.2372 25.9916 27.2855 25.9606 27.3343 25.9292C27.4054 25.8834 27.4774 25.8371 27.5362 25.7863C27.7513 25.5996 27.9365 25.3837 28.1216 25.1679C28.2998 24.9601 28.4779 24.7524 28.6826 24.571C28.7008 24.5549 28.7193 24.5383 28.7382 24.5213C28.9188 24.3586 29.1307 24.1677 29.3866 24.2215C29.5892 24.2643 29.6563 24.3852 29.5892 24.571C29.3577 25.2156 28.7064 25.5413 28.1367 25.8261C28.1088 25.8401 28.081 25.854 28.0535 25.8678L28.0457 25.8717L28.0365 25.8763C27.9115 25.9385 27.6905 26.0484 27.6935 26.2101C27.6981 26.4447 28.0298 26.3742 28.1425 26.3502L28.1458 26.3495C28.1856 26.341 28.2266 26.3346 28.2676 26.3281C28.4353 26.3018 28.6037 26.2754 28.6986 26.1053C28.8138 25.899 29.0401 25.7644 29.2629 25.6318C29.3864 25.5584 29.5087 25.4856 29.6104 25.4017C29.9343 25.1342 30.0044 25.5343 29.728 25.7734C29.713 25.7863 29.6975 25.7999 29.6816 25.8138L29.6815 25.8139C29.5888 25.8949 29.4821 25.9882 29.384 26.0454C29.2721 26.111 29.0962 26.2757 29.336 26.2504C29.5302 26.2297 29.7546 26.1133 29.9529 26.0104L29.953 26.0103L29.9531 26.0103C30.0176 25.9768 30.0793 25.9448 30.1364 25.9179C30.2077 25.8845 30.4372 25.7173 30.5913 25.6051L30.5918 25.6047C30.6491 25.5629 30.696 25.5288 30.7202 25.5121C30.8739 25.4461 30.9894 25.5426 30.992 25.7202C30.9935 25.8023 30.9621 25.8617 30.9131 25.9252C30.8981 25.9445 30.8794 25.9602 30.8607 25.9758C30.8421 25.9913 30.8236 26.0067 30.8089 26.0258C30.7016 26.0893 30.5309 26.2179 30.5361 26.3366C30.631 26.4352 31.0559 26.3376 31.1555 26.3072C31.1838 26.2938 31.2132 26.2788 31.2452 26.2623C31.2501 26.2599 31.2545 26.2568 31.2588 26.2536C31.2613 26.2518 31.2638 26.25 31.2663 26.2483C31.3928 26.2079 31.4889 26.1017 31.5784 26.0029C31.5951 25.9845 31.6115 25.9663 31.6278 25.9489C31.6403 25.9356 31.6527 25.9223 31.6651 25.9089C31.7469 25.821 31.8286 25.7332 31.9146 25.649C31.9322 25.6326 31.9497 25.6161 31.9672 25.5997C32.0411 25.5303 32.1144 25.4614 32.1962 25.3996C32.2172 25.3836 32.2397 25.3696 32.2622 25.3557C32.2882 25.3396 32.3142 25.3235 32.338 25.3041C32.3402 25.3023 32.3426 25.3005 32.3452 25.2986C32.3644 25.2838 32.3908 25.2635 32.3968 25.2416C32.4097 25.1951 32.3763 25.1993 32.3427 25.2034C32.3361 25.2042 32.3294 25.2051 32.323 25.2055C32.2678 25.2091 32.2127 25.2132 32.1575 25.2174C32.1276 25.2199 32.0971 25.222 32.0683 25.2148C31.913 25.1771 32.0425 24.9314 32.1312 24.8839C32.1806 24.8575 32.236 24.8546 32.2909 24.8517C32.3167 24.8503 32.3424 24.8489 32.3674 24.8451C32.3746 24.8442 32.381 24.8429 32.3877 24.8416L32.3906 24.841L32.404 24.825C32.4354 24.8224 32.4643 24.8198 32.4917 24.8173C32.5969 24.7863 32.6928 24.7362 32.7846 24.6644C32.9079 24.5681 33.0145 24.4508 33.1206 24.334L33.1206 24.334C33.18 24.2686 33.2393 24.2033 33.3013 24.142C33.3103 24.133 33.3198 24.1235 33.3298 24.1135L33.3299 24.1134C33.4852 23.9581 33.7533 23.6897 33.9728 23.6965C34.3647 23.7085 33.6298 24.4036 33.4918 24.5341C33.4814 24.5439 33.4744 24.5505 33.4715 24.5535C33.437 24.5878 33.3995 24.6182 33.367 24.6446C33.3135 24.688 33.2737 24.7203 33.2833 24.7409C33.2887 24.7406 33.294 24.7402 33.2993 24.7398C33.3045 24.7394 33.3098 24.739 33.3152 24.7388C33.916 24.6978 33.9552 24.7688 34.0846 25.0029L34.0873 25.0078C34.1069 25.0434 34.0862 25.0671 34.0568 25.0754C33.7453 25.1624 33.6888 25.1591 33.5434 25.1508C33.4705 25.1466 33.3752 25.1411 33.2142 25.1451C33.1605 25.1461 33.1121 25.1471 33.0682 25.1482C32.7748 25.239 32.535 25.4972 32.3426 25.7259C32.3343 25.7357 32.3256 25.7459 32.3167 25.7565L32.3166 25.7565C32.2149 25.8761 32.0781 26.0369 32.0672 26.1915C32.0481 26.4683 32.4133 26.382 32.5706 26.3092C32.802 26.2022 32.9982 26.0283 33.1913 25.857C33.2683 25.7887 33.3449 25.7208 33.423 25.6577C33.5638 25.5442 34.2626 25.1012 34.2038 25.5602C34.1916 25.6544 34.1221 25.746 34.0586 25.8297C34.0334 25.8628 34.0091 25.8948 33.9898 25.9252C33.9826 25.9365 33.9755 25.9475 33.9686 25.9582C33.8629 26.122 33.8079 26.2073 34.1424 26.3067C34.2894 26.3505 34.4931 26.2989 34.6334 26.2318C34.8104 26.1474 34.9457 26.0125 35.0812 25.8774C35.1877 25.7712 35.2943 25.6649 35.4214 25.5829C35.5787 25.4817 35.7489 25.4264 35.9227 25.5225C35.935 25.5292 35.9459 25.5359 35.9567 25.5426C36.0583 25.285 36.4992 25.2447 36.6411 25.5039C36.6821 25.5786 36.654 25.7051 36.6303 25.8115C36.6207 25.8551 36.6117 25.8953 36.6086 25.9272C36.5812 26.205 37.1212 25.9319 37.2981 25.793C37.4899 25.6422 37.7277 25.4817 37.9644 25.4161C38.131 25.3702 38.33 25.3877 38.4012 25.5787C38.4497 25.7083 38.3981 25.8498 38.3238 25.9732C38.5977 25.7956 39.0211 25.5633 39.1118 25.857C39.1361 25.9353 39.1185 26.0171 39.1031 26.0887C39.0749 26.2195 39.054 26.3165 39.3094 26.2969C39.4597 26.2851 39.6373 26.2071 39.7876 26.1411C39.8161 26.1286 39.8437 26.1165 39.8699 26.1053C39.8784 26.1012 39.8871 26.0972 39.8957 26.0932C39.9043 26.0892 39.913 26.0852 39.9215 26.0811ZM28.4676 25.2251C28.465 25.2282 28.4614 25.2303 28.4578 25.2323C28.4401 25.2504 28.4224 25.2683 28.4046 25.2862L28.4045 25.2862C28.3445 25.3468 28.2846 25.4072 28.2293 25.4714C28.3772 25.4025 28.5232 25.2896 28.6473 25.1935C28.6647 25.1801 28.6816 25.167 28.6981 25.1544C28.7049 25.1492 28.7149 25.142 28.727 25.1333L28.7271 25.1332C28.7981 25.0824 28.9413 24.9797 28.9312 24.9184C28.9095 24.7868 28.5315 25.1549 28.4965 25.1931C28.4902 25.2004 28.4837 25.2075 28.4771 25.2147L28.4771 25.2147C28.4739 25.2181 28.4707 25.2216 28.4676 25.2251ZM25.7792 26.3366C25.8534 26.3748 26.068 26.2349 26.117 26.1915C26.3264 26.0056 26.2822 25.8796 26.2354 25.746L26.232 25.7362C26.2403 25.836 26.1597 25.8726 26.0636 25.9162C26.0523 25.9213 26.0409 25.9265 26.0293 25.9319C25.9843 25.9528 25.9305 25.9605 25.877 25.9681C25.8316 25.9745 25.7865 25.9809 25.7472 25.9954C25.6693 26.0238 25.5126 26.1988 25.7792 26.3366ZM35.4694 26.1363C35.4885 26.3609 35.9201 26.1038 35.9583 26.0552C36.0403 25.951 36.0119 25.8854 35.9784 25.8126C35.9262 25.8538 35.8368 25.8965 35.7473 25.9392C35.6057 26.0067 35.464 26.0743 35.4694 26.1363Z" fill="white"/>
<path d="M13.2429 25.9415L13.2431 25.9419C13.2433 25.9421 13.2435 25.9424 13.2438 25.9427C13.2443 25.9427 13.2448 25.9422 13.2448 25.9417C13.2443 25.9412 13.2437 25.9409 13.243 25.9406C13.2426 25.9405 13.2422 25.9403 13.2418 25.9401C13.2417 25.9399 13.2415 25.9398 13.2412 25.9396C13.2414 25.9398 13.2416 25.94 13.2418 25.9401C13.2423 25.9405 13.2426 25.941 13.2429 25.9415Z" fill="white"/>
<path d="M34.5514 25.1477C34.6927 25.1477 34.8077 25.0387 34.8077 24.9045C34.8077 24.7703 34.6932 24.6613 34.5514 24.6613C34.4096 24.6613 34.2951 24.7703 34.2951 24.9045C34.2951 25.0387 34.4101 25.1477 34.5514 25.1477Z" fill="white"/>
<path fill-rule="evenodd" clip-rule="evenodd" d="M21.6994 26.1322C21.7035 26.1353 21.7056 26.1404 21.7056 26.1461C21.7087 26.1549 21.7061 26.1637 21.6999 26.1709C21.4864 26.7749 19.7191 26.9587 19.5705 26.2721C19.5408 26.2963 19.5097 26.3225 19.4774 26.3497C19.2707 26.5236 19.017 26.7372 18.7784 26.7171C18.4654 26.6908 18.6386 26.3557 18.7506 26.1668C18.6732 26.2139 18.5962 26.266 18.5188 26.3185C18.2799 26.4802 18.036 26.6454 17.7583 26.6789C17.582 26.7001 17.2839 26.7336 17.1849 26.5281C17.0827 26.3161 17.3498 26.0403 17.5265 25.8579C17.6022 25.7797 17.6614 25.7186 17.6676 25.6872C17.6585 25.6868 17.6391 25.6814 17.6136 25.6742C17.5257 25.6496 17.3643 25.6043 17.2916 25.6727C17.2527 25.7094 17.1724 25.8349 17.0901 25.9635C17.0011 26.1025 16.9098 26.2451 16.8662 26.2829C16.6191 26.4977 16.2891 26.7083 15.9451 26.6799C15.834 26.6708 15.7452 26.6306 15.6579 26.5911C15.5335 26.5348 15.4122 26.48 15.2339 26.5188C15.1666 26.5334 15.102 26.5588 15.037 26.5844C14.9615 26.614 14.8855 26.6439 14.8043 26.6572C14.5583 26.697 14.3562 26.6484 14.2577 26.4223V26.4042C14.2551 26.4058 14.2525 26.4068 14.25 26.4079C14.2453 26.3573 14.2386 26.3072 14.2293 26.2581V26.2463C14.2293 26.2404 14.2288 26.2345 14.2282 26.2286L14.228 26.2262L14.2277 26.2229L14.2275 26.2207L14.2274 26.2191C14.2273 26.2183 14.2273 26.2176 14.2273 26.2168C14.2407 26.1642 14.25 26.1115 14.2561 26.0589C14.257 26.0559 14.2579 26.0529 14.2588 26.05C14.26 26.0459 14.2612 26.0418 14.2624 26.0377C14.2662 26.0254 14.2699 26.013 14.2732 26.0005C14.2984 25.9732 14.3222 25.9437 14.3469 25.9117C14.5042 25.7114 14.6966 25.5674 14.9142 25.4394C15.1555 25.2979 15.5011 25.2406 15.7615 25.3728C15.8523 25.4161 15.9337 25.4848 15.9998 25.5844C16.0668 25.6861 16.1534 25.842 16.1282 25.9659C16.1232 25.9907 16.0465 26.0551 15.9774 26.1131C15.9183 26.1627 15.8648 26.2078 15.8662 26.2194C15.8827 26.3542 16.3004 26.2437 16.3798 26.2055C16.5058 26.1446 16.5662 26.0142 16.6239 25.8898C16.6411 25.8527 16.658 25.8162 16.6764 25.7821C16.6863 25.7639 16.6962 25.7453 16.7063 25.7264C16.784 25.5808 16.8693 25.4209 16.993 25.3144C17.2483 25.095 17.568 25.2189 17.8228 25.3743C18.0559 25.4672 18.2328 25.6252 18.058 25.7538C17.9332 25.8456 17.4783 26.2602 17.8568 26.2256C18.0868 26.2044 18.3462 26.0661 18.5391 25.9541C19.078 25.6412 19.5159 25.1719 19.9243 24.7068C19.9332 24.6966 19.9446 24.6835 19.9581 24.6679L19.9582 24.6679L19.959 24.6669C20.1547 24.4415 20.7979 23.7006 21.029 23.7145C21.3033 23.7311 21.128 24.0759 21.0393 24.1957C20.8927 24.3938 20.5993 24.6828 20.2959 24.9817C19.9352 25.337 19.5602 25.7063 19.4009 25.9535C19.5723 25.8637 19.759 25.7394 19.9471 25.6141C20.1861 25.4549 20.4274 25.2942 20.6427 25.2008C20.8567 25.1079 21.2615 25.2612 21.0212 25.5638C20.9305 25.6779 20.8082 25.7057 20.6809 25.7305C20.5581 25.7543 20.2394 25.8343 20.1775 25.9546C20.1177 26.0702 20.2657 26.2174 20.3957 26.2602C20.5033 26.2958 20.6473 26.2827 20.7603 26.2725L20.7706 26.2716C20.9501 26.2556 21.1053 26.2117 21.2652 26.1337C21.2856 26.1238 21.3065 26.1121 21.3279 26.1001C21.3866 26.0671 21.4487 26.0323 21.5137 26.0289C21.6143 26.0238 21.6561 26.0485 21.6994 26.1322ZM15.1277 26.1616C15.2638 26.1043 15.4846 26.0057 15.5444 25.8555C15.5774 25.6913 15.3438 25.7548 15.2509 25.7852C15.1019 25.8348 14.9034 25.9252 14.8224 26.0692C14.6919 26.3005 15.0225 26.206 15.1277 26.1616Z" fill="white"/>
<path d="M16.6346 27.9974C16.7011 28.0588 16.7878 28.0914 16.8852 28.0914C17.0234 28.0914 17.1091 28.0206 17.1091 27.9071C17.1091 27.8007 17.0307 27.762 16.9043 27.7336C16.8161 27.7135 16.7955 27.7021 16.7955 27.6722C16.7955 27.6438 16.8244 27.6236 16.8656 27.6236C16.9151 27.6236 16.9683 27.6443 17.0152 27.682L17.024 27.6892L17.0977 27.5875L17.0905 27.5813C17.0286 27.5286 16.9564 27.5028 16.8687 27.5028C16.7429 27.5028 16.6552 27.5777 16.6552 27.6846C16.6552 27.8033 16.7527 27.8353 16.8615 27.8601C16.9487 27.8802 16.9688 27.8911 16.9688 27.92C16.9688 27.9509 16.9384 27.9706 16.8899 27.9706C16.8275 27.9706 16.7707 27.9479 16.7166 27.9014L16.7083 27.8942L16.6274 27.9907L16.6346 27.9974Z" fill="white"/>
<path fill-rule="evenodd" clip-rule="evenodd" d="M17.3282 28.0821H17.467V27.9045H17.5856C17.7114 27.9045 17.8027 27.8219 17.8027 27.7083C17.8027 27.5947 17.7114 27.5121 17.5856 27.5121H17.3282V28.0821ZM17.5727 27.7744H17.467V27.6412H17.5727C17.6258 27.6412 17.6603 27.667 17.6603 27.7078C17.6603 27.7481 17.6258 27.7744 17.5727 27.7744Z" fill="white"/>
<path d="M18.0213 28.0821H18.4649V27.9546H18.1611V27.8554H18.4365V27.7279H18.1611V27.6396H18.4649V27.5121H18.0213V28.0821Z" fill="white"/>
<path d="M18.6845 27.7966C18.6845 27.9561 18.8228 28.0914 18.9862 28.0914C19.0688 28.0914 19.1487 28.0568 19.2064 27.9959L19.2142 27.9881L19.1126 27.8967L19.1054 27.905C19.0734 27.9417 19.0296 27.9628 18.9857 27.9628C18.8991 27.9628 18.8264 27.8864 18.8264 27.7961C18.8264 27.7062 18.8991 27.6304 18.9857 27.6304C19.0301 27.6304 19.0734 27.6515 19.1054 27.6882L19.1126 27.6964L19.2142 27.6051L19.207 27.5973C19.1497 27.5369 19.0693 27.5023 18.9862 27.5023C18.8228 27.5023 18.6845 27.6371 18.6845 27.7966Z" fill="white"/>
<path d="M19.4287 28.0821H19.568V27.5121H19.4287V28.0821Z" fill="white"/>
<path fill-rule="evenodd" clip-rule="evenodd" d="M20.2368 28.0821H20.3921L20.16 27.5121H20.014L19.782 28.0821H19.9367L19.9718 27.9959H20.2018L20.2368 28.0821ZM20.0213 27.8745L20.0868 27.713L20.1523 27.8745H20.0213Z" fill="white"/>
<path d="M20.6061 28.0821H21.0181V27.9546H20.7453V27.5121H20.6061V28.0821Z" fill="white"/>
<path d="M21.408 28.0821H21.5473V27.6396H21.718V27.5121H21.2373V27.6396H21.408V28.0821Z" fill="white"/>
<path d="M22.2919 28.0821V27.8761L22.5142 27.5116H22.3574L22.2218 27.7413L22.0913 27.5116H21.9289L22.1517 27.8761V28.0821H22.2919Z" fill="white"/>
<path d="M23.1068 27.7966C23.1068 27.9561 23.245 28.0914 23.4085 28.0914C23.491 28.0914 23.5714 28.0568 23.6287 27.9959L23.6364 27.9881L23.5348 27.8967L23.5276 27.905C23.4956 27.9417 23.4523 27.9628 23.4079 27.9628C23.3213 27.9628 23.2486 27.8864 23.2486 27.7961C23.2486 27.7062 23.3218 27.6304 23.4079 27.6304C23.4523 27.6304 23.4956 27.6515 23.5276 27.6882L23.5348 27.6964L23.6364 27.6051L23.6292 27.5973C23.5724 27.5369 23.4915 27.5023 23.4085 27.5023C23.245 27.5023 23.1068 27.6371 23.1068 27.7966Z" fill="white"/>
<path fill-rule="evenodd" clip-rule="evenodd" d="M23.8401 27.7966C23.8401 27.9561 23.9783 28.0914 24.1418 28.0914C24.3058 28.0914 24.444 27.9561 24.4435 27.7966C24.4435 27.6371 24.3053 27.5023 24.1418 27.5023C23.9783 27.5023 23.8401 27.6371 23.8401 27.7966ZM23.9824 27.7966C23.9824 27.7068 24.0557 27.6309 24.1418 27.6309C24.2289 27.6309 24.3022 27.7068 24.3017 27.7966C24.3017 27.8869 24.2284 27.9633 24.1418 27.9633C24.0552 27.9633 23.9824 27.8869 23.9824 27.7966Z" fill="white"/>
<path d="M24.6962 28.0821H24.8349V27.8647H25.1103V27.7372H24.8359V27.6396H25.1397V27.5121H24.6962V28.0821Z" fill="white"/>
<path d="M25.3914 28.0821H25.5311V27.8647H25.8065V27.7372H25.5311V27.6396H25.8349V27.5121H25.3914V28.0821Z" fill="white"/>
<path d="M26.0865 28.0821H26.53V27.9546H26.2263V27.8554H26.5017V27.7279H26.2263V27.6396H26.53V27.5121H26.0865V28.0821Z" fill="white"/>
<path d="M26.7822 28.0821H27.2257V27.9546H26.922V27.8554H27.1974V27.7279H26.922V27.6396H27.2257V27.5121H26.7822V28.0821Z" fill="white"/>
<path fill-rule="evenodd" clip-rule="evenodd" d="M28.2891 28.0821H28.449L28.3103 27.8849C28.384 27.8539 28.4289 27.7873 28.4289 27.7083C28.4289 27.5947 28.3376 27.5121 28.2118 27.5121H27.9544V28.0821H28.0932V27.904H28.1638L28.2891 28.0821ZM28.1984 27.7744H28.0926V27.6412H28.1984C28.2515 27.6412 28.286 27.6675 28.286 27.7078C28.286 27.7481 28.2515 27.7744 28.1984 27.7744Z" fill="white"/>
<path fill-rule="evenodd" clip-rule="evenodd" d="M28.6336 27.7966C28.6336 27.9561 28.7718 28.0914 28.9353 28.0914C29.0988 28.0914 29.237 27.9561 29.237 27.7966C29.237 27.6371 29.0988 27.5023 28.9353 27.5023C28.7718 27.5023 28.6336 27.6371 28.6336 27.7966ZM28.776 27.7966C28.776 27.7068 28.8487 27.6309 28.9353 27.6309C29.022 27.6309 29.0952 27.7068 29.0952 27.7966C29.0952 27.8869 29.022 27.9633 28.9353 27.9633C28.8487 27.9633 28.776 27.8869 28.776 27.7966Z" fill="white"/>
<path fill-rule="evenodd" clip-rule="evenodd" d="M29.8682 28.0821H30.0235L29.7914 27.5121H29.6455L29.4134 28.0821H29.5681L29.6032 27.9959H29.8332L29.8682 28.0821ZM29.6522 27.8745L29.7177 27.713L29.7831 27.8745H29.6522Z" fill="white"/>
<path d="M30.1885 27.9974C30.255 28.0588 30.3417 28.0914 30.4391 28.0914C30.5773 28.0914 30.663 28.0206 30.663 27.9076C30.663 27.8012 30.5846 27.7625 30.4582 27.7341C30.37 27.714 30.3494 27.7026 30.3494 27.6727C30.3494 27.6443 30.3783 27.6242 30.4195 27.6242C30.469 27.6242 30.5222 27.6448 30.5691 27.6825L30.5779 27.6892L30.6516 27.5875L30.6444 27.5813C30.5825 27.5286 30.5103 27.5028 30.4226 27.5028C30.2968 27.5028 30.2091 27.5777 30.2091 27.6846C30.2091 27.8033 30.3066 27.8353 30.4154 27.8601C30.5026 27.8802 30.5227 27.8911 30.5227 27.92C30.5227 27.9509 30.4923 27.9706 30.4438 27.9706C30.3814 27.9706 30.3246 27.9479 30.2705 27.9014L30.2622 27.8942L30.1808 27.9907L30.1885 27.9974Z" fill="white"/>
<path d="M31.0281 28.0821H31.1673V27.6396H31.338V27.5121H30.8574V27.6396H31.0281V28.0821Z" fill="white"/>
<path d="M31.5551 28.0821H31.9986V27.9546H31.6949V27.8554H31.9703V27.7279H31.6949V27.6396H31.9986V27.5121H31.5551V28.0821Z" fill="white"/>
<path fill-rule="evenodd" clip-rule="evenodd" d="M32.5608 28.0821H32.7206L32.5819 27.8849C32.6557 27.8539 32.7005 27.7873 32.7005 27.7083C32.7005 27.5947 32.6092 27.5121 32.4834 27.5121H32.2261V28.0821H32.3648V27.904H32.4354L32.5608 28.0821ZM32.4705 27.7744H32.3648V27.6412H32.4705C32.5236 27.6412 32.5582 27.6675 32.5582 27.7078C32.5582 27.7481 32.5236 27.7744 32.4705 27.7744Z" fill="white"/>
<path d="M32.8939 27.9974C32.9604 28.0588 33.0471 28.0914 33.1445 28.0914C33.2828 28.0914 33.3684 28.0206 33.3694 27.9076C33.3694 27.8012 33.291 27.7625 33.1647 27.7341C33.0765 27.714 33.0558 27.7026 33.0558 27.6727C33.0558 27.6443 33.0847 27.6242 33.126 27.6242C33.1755 27.6242 33.2286 27.6448 33.2755 27.6825L33.2843 27.6892L33.3581 27.5875L33.3503 27.5813C33.2884 27.5286 33.2162 27.5028 33.1286 27.5028C33.0027 27.5028 32.9151 27.5777 32.9151 27.6846C32.9151 27.8033 33.0125 27.8353 33.1213 27.8601C33.2085 27.8802 33.2286 27.8911 33.2286 27.92C33.2286 27.9509 33.1982 27.9706 33.1497 27.9706C33.0873 27.9706 33.0306 27.9479 32.9764 27.9014L32.9682 27.8942L32.8867 27.9907L32.8939 27.9974Z" fill="white"/>
</svg>
