<svg width="41" height="40" viewBox="0 0 41 40" fill="none" xmlns="http://www.w3.org/2000/svg">
<path fill-rule="evenodd" clip-rule="evenodd" d="M20.6247 3.33337C29.8297 3.33337 37.2913 10.795 37.2913 20C37.2913 29.205 29.8297 36.6667 20.6247 36.6667C11.4197 36.6667 3.95801 29.205 3.95801 20C3.95801 10.795 11.4197 3.33337 20.6247 3.33337ZM23.9313 23.75C23.048 24.53 21.893 25 20.6247 25C19.4066 25.0022 18.23 24.5575 17.318 23.75C16.9865 23.4574 16.5523 23.3085 16.111 23.336C15.6696 23.3635 15.2573 23.5652 14.9647 23.8967C14.6721 24.2282 14.5231 24.6624 14.5506 25.1038C14.5781 25.5451 14.7798 25.9574 15.1113 26.25C16.6329 27.5946 18.5941 28.3357 20.6247 28.3334C22.6553 28.3362 24.6167 27.595 26.138 26.25C26.4695 25.9574 26.6712 25.5451 26.6987 25.1038C26.7262 24.6624 26.5773 24.2282 26.2847 23.8967C25.9921 23.5652 25.5797 23.3635 25.1384 23.336C24.697 23.3085 24.2629 23.4574 23.9313 23.75ZM14.7913 13.3334C12.9797 13.3334 11.528 14.4667 10.8013 15.92C10.6103 16.3003 10.5719 16.7392 10.6941 17.1468C10.8163 17.5544 11.0897 17.8998 11.4584 18.1123C11.8271 18.3248 12.2631 18.3882 12.677 18.2895C13.0909 18.1909 13.4515 17.9376 13.6847 17.5817L13.7813 17.4134C14.0513 16.8734 14.4647 16.6667 14.7913 16.6667C15.0747 16.6667 15.428 16.825 15.693 17.2267L15.8013 17.4134C16.0014 17.805 16.3482 18.1017 16.7661 18.2388C17.1839 18.3759 17.6391 18.3422 18.0322 18.1452C18.4254 17.9482 18.7248 17.6037 18.8651 17.1869C19.0054 16.7701 18.9753 16.3147 18.7813 15.92C18.053 14.4667 16.603 13.3334 14.7913 13.3334ZM26.458 13.3334C24.6463 13.3334 23.1963 14.4667 22.468 15.92C22.277 16.3003 22.2386 16.7392 22.3608 17.1468C22.483 17.5544 22.7564 17.8998 23.1251 18.1123C23.4938 18.3248 23.9298 18.3882 24.3437 18.2895C24.7576 18.1909 25.1181 17.9376 25.3513 17.5817L25.448 17.4134C25.718 16.8734 26.1313 16.6667 26.458 16.6667C26.7413 16.6667 27.0947 16.825 27.3597 17.2267L27.468 17.4134C27.565 17.6108 27.7002 17.787 27.8656 17.932C28.0311 18.0769 28.2236 18.1876 28.432 18.2578C28.6405 18.328 28.8608 18.3562 29.0802 18.3408C29.2996 18.3255 29.5138 18.2668 29.7105 18.1683C29.9071 18.0698 30.0823 17.9333 30.226 17.7667C30.3696 17.6001 30.4789 17.4067 30.5474 17.1978C30.616 16.9888 30.6425 16.7683 30.6254 16.549C30.6084 16.3297 30.5481 16.1159 30.448 15.92C29.7213 14.4667 28.2697 13.3334 26.458 13.3334Z" fill="#4A4A49"/>
</svg>
