<svg width="68" height="40" viewBox="0 0 68 40" fill="none" xmlns="http://www.w3.org/2000/svg">
<path d="M47.3336 20.0013C47.3336 21.5988 46.8599 23.1605 45.9723 24.4889C45.0847 25.8172 43.8232 26.8525 42.3473 27.4639C40.8713 28.0752 39.2472 28.2352 37.6803 27.9235C36.1135 27.6118 34.6742 26.8425 33.5445 25.7129C32.4149 24.5832 31.6456 23.144 31.3339 21.5771C31.0223 20.0102 31.1822 18.3861 31.7936 16.9102C32.4049 15.4342 33.4402 14.1727 34.7686 13.2851C36.0969 12.3976 37.6586 11.9238 39.2562 11.9238C41.3984 11.9238 43.453 12.7748 44.9678 14.2897C46.4826 15.8045 47.3336 17.859 47.3336 20.0013Z" fill="#FFC107"/>
<path d="M32.8072 24.8472C32.4287 24.3476 32.1099 23.8054 31.8573 23.2317H36.1577C36.3857 22.7129 36.5582 22.1714 36.6722 21.6163H31.3403C31.2318 21.0846 31.1777 20.5434 31.1788 20.0008H36.833C36.8325 19.4583 36.7784 18.9171 36.6714 18.3853H31.3403C31.4555 17.8301 31.6291 17.2885 31.8581 16.7698H36.1585C35.9059 16.1961 35.5871 15.654 35.2086 15.1543H32.8072C33.1578 14.6831 33.5587 14.2514 34.0026 13.8668C32.773 12.8122 31.2546 12.1518 29.6448 11.9712C28.0349 11.7907 26.408 12.0983 24.9753 12.8542C23.5425 13.6101 22.3701 14.7794 21.6104 16.2101C20.8507 17.6408 20.5387 19.2669 20.715 20.8773C20.8912 22.4876 21.5476 24.0077 22.5988 25.2402C23.6501 26.4727 25.0476 27.3606 26.61 27.7887C28.1723 28.2167 29.8273 28.1651 31.3599 27.6406C32.8926 27.1161 34.2321 26.1428 35.2046 24.8472H32.8072Z" fill="#FF3D00"/>
</svg>
