<svg width="41" height="40" viewBox="0 0 41 40" fill="none" xmlns="http://www.w3.org/2000/svg">
<path d="M21.7586 19.9495C21.5241 19.7151 21.2062 19.5834 20.8747 19.5834C20.5432 19.5834 20.2252 19.7151 19.9908 19.9495C19.7564 20.1839 19.6247 20.5019 19.6247 20.8334V22.0834H18.3747C18.0432 22.0834 17.7252 22.2151 17.4908 22.4495C17.2564 22.6839 17.1247 23.0019 17.1247 23.3334C17.1247 23.6649 17.2564 23.9828 17.4908 24.2173C17.7252 24.4517 18.0432 24.5834 18.3747 24.5834H19.6247V25.8334C19.6247 26.1649 19.7564 26.4828 19.9908 26.7173C20.2252 26.9517 20.5432 27.0834 20.8747 27.0834C21.2062 27.0834 21.5241 26.9517 21.7586 26.7173C21.993 26.4828 22.1247 26.1649 22.1247 25.8334V24.5834H23.3747C23.7062 24.5834 24.0241 24.4517 24.2586 24.2173C24.493 23.9828 24.6247 23.6649 24.6247 23.3334C24.6247 23.0019 24.493 22.6839 24.2586 22.4495C24.0241 22.2151 23.7062 22.0834 23.3747 22.0834H22.1247V20.8334C22.1247 20.5019 21.993 20.1839 21.7586 19.9495Z" fill="#4A4A49"/>
<path fill-rule="evenodd" clip-rule="evenodd" d="M17.0513 2.21671C18.0413 2.08337 19.2897 2.08337 20.788 2.08337H20.9613C22.458 2.08337 23.708 2.08337 24.698 2.21671C25.7447 2.35671 26.6897 2.66671 27.448 3.42671C28.208 4.18504 28.518 5.13004 28.658 6.17671C28.7913 7.16671 28.7913 8.41671 28.7913 9.91337V10.0434C32.1597 10.1534 34.183 10.5467 35.588 11.9534C37.5413 13.905 37.5413 17.0484 37.5413 23.3334C37.5413 29.6184 37.5413 32.7617 35.588 34.7134C33.6363 36.6667 30.493 36.6667 24.208 36.6667H17.5413C11.2563 36.6667 8.11301 36.6667 6.16134 34.7134C4.20801 32.7617 4.20801 29.6184 4.20801 23.3334C4.20801 17.0484 4.20801 13.905 6.16134 11.9534C7.56634 10.5467 9.58967 10.1534 12.958 10.0434V9.91337C12.958 8.41671 12.958 7.16671 13.0913 6.17504C13.2313 5.13004 13.5413 4.18504 14.3013 3.42504C15.0597 2.66671 16.0047 2.35671 17.0513 2.21671ZM26.2913 10V10.0034C25.638 10 24.9447 10 24.208 10H17.5413C16.8047 10 16.1113 10 15.458 10.0034V10C15.458 8.39337 15.463 7.31337 15.568 6.50837C15.673 5.74004 15.8513 5.41171 16.068 5.19504C16.2847 4.97671 16.6147 4.79837 17.383 4.69504C18.188 4.58671 19.268 4.58337 20.8747 4.58337C22.4813 4.58337 23.5613 4.58671 24.3647 4.69337C25.1347 4.79837 25.4647 4.97671 25.6813 5.19337C25.898 5.41004 26.0763 5.74004 26.1813 6.50837C26.288 7.31337 26.2913 8.39337 26.2913 10ZM25.5887 28.0474C26.839 26.7972 27.5413 25.1015 27.5413 23.3334C27.5413 21.5653 26.839 19.8696 25.5887 18.6193C24.3385 17.3691 22.6428 16.6667 20.8747 16.6667C19.1066 16.6667 17.4109 17.3691 16.1606 18.6193C14.9104 19.8696 14.208 21.5653 14.208 23.3334C14.208 25.1015 14.9104 26.7972 16.1606 28.0474C17.4109 29.2977 19.1066 30 20.8747 30C22.6428 30 24.3385 29.2977 25.5887 28.0474Z" fill="#4A4A49"/>
</svg>
