<svg width="24" height="24" viewBox="0 0 24 24" fill="none" xmlns="http://www.w3.org/2000/svg">
<g id="Component 5">
<path id="Vector" d="M19.184 7.80518L16.219 4.83818C14.192 2.80818 13.179 1.79518 12.09 2.03518C11.002 2.27518 10.509 3.62218 9.522 6.31518L8.854 8.13818C8.591 8.85617 8.459 9.21518 8.222 9.49318C8.1158 9.61793 7.99493 9.7294 7.862 9.82518C7.566 10.0382 7.198 10.1392 6.462 10.3422C4.802 10.8002 3.971 11.0292 3.658 11.5722C3.5226 11.8072 3.45219 12.074 3.454 12.3452C3.458 12.9722 4.067 13.5812 5.284 14.8002L6.7 16.2162L2.224 20.6962C2.08761 20.8408 2.01293 21.0328 2.01583 21.2316C2.01873 21.4303 2.09897 21.6201 2.23952 21.7607C2.38007 21.9012 2.56986 21.9814 2.76861 21.9843C2.96736 21.9872 3.15941 21.9126 3.304 21.7762L7.779 17.2962L9.245 18.7642C10.471 19.9902 11.084 20.6042 11.715 20.6042C11.98 20.6042 12.241 20.5362 12.472 20.4042C13.02 20.0912 13.25 19.2552 13.711 17.5822C13.913 16.8472 14.014 16.4802 14.226 16.1832C14.319 16.0542 14.427 15.9362 14.548 15.8312C14.823 15.5932 15.18 15.4592 15.893 15.1912L17.737 14.4982C20.401 13.4982 21.733 12.9972 21.967 11.9122C22.202 10.8262 21.197 9.81918 19.184 7.80518Z" fill="white"/>
</g>
</svg>
