<svg width="24" height="24" viewBox="0 0 24 24" fill="none" xmlns="http://www.w3.org/2000/svg">
<path fill-rule="evenodd" clip-rule="evenodd" d="M18.1923 3.12587C18.5648 2.99012 18.9684 2.96353 19.3555 3.04923C19.7427 3.13494 20.0973 3.32937 20.3778 3.60969C20.6582 3.89 20.8528 4.24454 20.9387 4.63165C21.0246 5.01876 20.9982 5.42233 20.8626 5.79496L16.2676 19.5672C16.1558 19.9057 15.959 20.2097 15.6961 20.4504C15.4332 20.691 15.1129 20.8602 14.7659 20.9416C14.4197 21.0259 14.0576 21.0188 13.715 20.921C13.3724 20.8232 13.0611 20.638 12.8117 20.3836L10.3457 17.9293L7.75636 19.2689C7.6571 19.3204 7.54613 19.3451 7.43441 19.3406C7.3227 19.3361 7.21409 19.3025 7.11932 19.2431C7.02455 19.1838 6.94689 19.1008 6.89401 19.0023C6.84114 18.9038 6.81487 18.7932 6.81781 18.6814L6.92452 14.5878L15.9822 8.00891C16.0676 7.94686 16.14 7.86859 16.1952 7.77857C16.2503 7.68855 16.2873 7.58855 16.3038 7.48426C16.3203 7.37998 16.3162 7.27346 16.2915 7.17078C16.2669 7.06811 16.2223 6.97129 16.1602 6.88586C16.0982 6.80043 16.0199 6.72805 15.9299 6.67287C15.8399 6.61768 15.7399 6.58077 15.6356 6.56424C15.5313 6.5477 15.4248 6.55187 15.3221 6.5765C15.2194 6.60113 15.1226 6.64574 15.0372 6.70779L5.82654 13.3985L3.60231 11.1743C3.3626 10.9345 3.18587 10.6392 3.08785 10.3146C2.98982 9.99003 2.97355 9.64626 3.04046 9.31388C3.10775 8.95049 3.2705 8.61155 3.51203 8.33184C3.75356 8.05213 4.06516 7.84172 4.41486 7.7222H4.41872L18.191 3.12459L18.1923 3.12587Z" fill="white"/>
</svg>
