<svg width="41" height="40" viewBox="0 0 41 40" fill="none" xmlns="http://www.w3.org/2000/svg">
<path d="M18.458 3.33337C16.2479 3.33337 14.1283 4.21135 12.5655 5.77415C11.0026 7.33695 10.1247 9.45657 10.1247 11.6667C10.1247 13.8768 11.0026 15.9965 12.5655 17.5593C14.1283 19.1221 16.2479 20 18.458 20C20.6681 20 22.7878 19.1221 24.3506 17.5593C25.9134 15.9965 26.7913 13.8768 26.7913 11.6667C26.7913 9.45657 25.9134 7.33695 24.3506 5.77415C22.7878 4.21135 20.6681 3.33337 18.458 3.33337ZM18.458 21.6667C14.4663 21.6667 10.833 22.8234 8.16134 24.4534C6.82801 25.2667 5.68801 26.2267 4.86467 27.27C4.05467 28.2934 3.45801 29.5217 3.45801 30.8334C3.45801 32.2417 4.14301 33.3517 5.12967 34.1434C6.06301 34.8934 7.29467 35.39 8.60301 35.7367C11.233 36.4317 14.743 36.6667 18.458 36.6667L19.5997 36.6584C19.8788 36.6545 20.1525 36.5807 20.3956 36.4435C20.6388 36.3064 20.8436 36.1103 20.9912 35.8734C21.1389 35.6365 21.2247 35.3663 21.2407 35.0876C21.2567 34.8089 21.2025 34.5307 21.083 34.2784C20.4496 32.9412 20.1222 31.4797 20.1247 30C20.1247 27.9134 20.763 25.98 21.853 24.3784C22.015 24.1404 22.1126 23.8644 22.1363 23.5775C22.1599 23.2905 22.1088 23.0023 21.988 22.741C21.8671 22.4797 21.6807 22.2541 21.4467 22.0863C21.2127 21.9184 20.9393 21.8141 20.653 21.7834C19.9363 21.7067 19.203 21.6667 18.458 21.6667ZM30.6513 23.4184C30.3095 23.3045 29.9399 23.3045 29.598 23.4184L24.598 25.085C24.266 25.1956 23.9772 25.4079 23.7726 25.6918C23.568 25.9757 23.4579 26.3168 23.458 26.6667V29.4517C23.4578 31.2344 24.1149 32.9546 25.3038 34.283C26.4926 35.6115 28.1295 36.4548 29.9013 36.6517C30.0513 36.6684 30.1997 36.6684 30.348 36.6517C32.1198 36.4548 33.7568 35.6115 34.9456 34.283C36.1344 32.9546 36.7916 31.2344 36.7913 29.4517V26.6667C36.7914 26.3168 36.6814 25.9757 36.4767 25.6918C36.2721 25.4079 35.9834 25.1956 35.6513 25.085L30.6513 23.4184Z" fill="#4A4A49"/>
</svg>
