<svg width="25" height="24" viewBox="0 0 25 24" fill="none" xmlns="http://www.w3.org/2000/svg">
<path fill-rule="evenodd" clip-rule="evenodd" d="M13.5 2.5C13.5 1.94772 13.0523 1.5 12.5 1.5C11.9478 1.5 11.5 1.94772 11.5 2.5V4C11.5 4.55228 11.9478 5 12.5 5C13.0523 5 13.5 4.55228 13.5 4V2.5ZM7.32063 4.02126C6.96566 3.59816 6.33491 3.54294 5.91181 3.89791C5.48871 4.25289 5.43349 4.88364 5.78846 5.30674L6.75246 6.45574C7.10744 6.87884 7.73819 6.93406 8.16129 6.57909C8.58438 6.22411 8.63961 5.59336 8.28463 5.17026L7.32063 4.02126ZM19.212 5.30693C19.5671 4.88393 19.512 4.25316 19.089 3.89808C18.666 3.543 18.0352 3.59806 17.6801 4.02107L16.7156 5.17007C16.3605 5.59307 16.4156 6.22384 16.8386 6.57892C17.2616 6.934 17.8924 6.87894 18.2475 6.45593L19.212 5.30693ZM3.56418 9.15869C3.02029 9.0628 2.50163 9.42597 2.40574 9.96987C2.30984 10.5138 2.67302 11.0324 3.21691 11.1283L4.69441 11.3888C5.23831 11.4847 5.75696 11.1215 5.85286 10.5776C5.94875 10.0337 5.58558 9.51509 5.04168 9.41919L3.56418 9.15869ZM21.7832 11.1283C22.3271 11.0324 22.6903 10.5138 22.5944 9.96987C22.4985 9.42597 21.9798 9.0628 21.4359 9.15869L19.9584 9.41919C19.4145 9.51509 19.0513 10.0337 19.1472 10.5776C19.2431 11.1215 19.7618 11.4847 20.3057 11.3888L21.7832 11.1283ZM3.50005 19.5C2.94776 19.5 2.50005 19.9477 2.50005 20.5C2.50005 21.0523 2.94776 21.5 3.50005 21.5H7.50006H17.5001H22C22.5523 21.5 23 21.0523 23 20.5C23 19.9477 22.5523 19.5 22 19.5H18.5001V12.5C18.5001 9.18622 15.8138 6.5 12.5001 6.5C9.18628 6.5 6.50006 9.18622 6.50006 12.5V19.5H3.50005Z" fill="white"/>
</svg>
