<svg width="67" height="40" viewBox="0 0 67 40" fill="none" xmlns="http://www.w3.org/2000/svg">
<path d="M27.9176 15.8047L25.9125 21.7723C25.9125 21.7723 25.4062 19.2484 25.3584 18.9326C24.2183 16.3339 22.5366 16.48 22.5366 16.48L24.5182 24.1854H26.9265L30.2573 15.8047H27.9176Z" fill="#334ABE"/>
<path d="M29.8232 24.1854H32.0112L33.3355 15.8047H31.1191L29.8232 24.1854Z" fill="#334ABE"/>
<path d="M45.3068 15.8047H43.0059L39.416 24.1854H41.5888L42.0383 22.9886H44.7769L45.0089 24.1854H47.0002L45.3068 15.8047ZM42.6429 21.3886L43.8336 18.2212L44.4569 21.3886H42.6429Z" fill="#334ABE"/>
<path d="M36.4368 18.2483C36.4368 17.787 36.8177 17.4414 37.9072 17.4414C38.4455 17.4916 38.9645 17.6679 39.422 17.956L39.7794 16.1967C39.1205 15.9594 38.4285 15.8271 37.7285 15.8047C35.4276 15.8047 34.2398 16.9032 34.2398 18.2981C34.2398 20.8193 37.2728 20.4743 37.2728 21.7661C37.2728 21.9891 37.0975 22.5017 35.8321 22.5017C35.1051 22.5122 34.3857 22.3533 33.7307 22.0376L33.3525 23.7283C34.0964 24.0682 34.9105 24.2263 35.7275 24.1896C37.2963 24.1896 39.4753 23.017 39.4753 21.329C39.4753 19.299 36.4368 19.1535 36.4368 18.2483Z" fill="#334ABE"/>
<path d="M25.6501 20.3355L24.9145 16.7172C24.8078 16.4876 24.6389 16.2925 24.4268 16.1541C24.2147 16.0157 23.9681 15.9397 23.7149 15.9346H20.3335C20.3335 15.9346 24.6465 17.2069 25.6501 20.3355Z" fill="#FFC107"/>
</svg>
